<mxfile host="65bd71144e">
    <diagram id="cfF-LA429BAPi4aCmseQ" name="Page-1">
        <mxGraphModel dx="1664" dy="1374" grid="0" gridSize="10" guides="0" tooltips="1" connect="1" arrows="1" fold="1" page="0" pageScale="1" pageWidth="827" pageHeight="1169" background="#FFFCE8" math="0" shadow="0">
            <root>
                <mxCell id="0"/>
                <mxCell id="1" parent="0"/>
                <mxCell id="eQaoq6UVIGZGrponW-SI-1" value="" style="rounded=0;html=1;labelBackgroundColor=#FFFCE8;fillColor=#FFFCE8;strokeWidth=5;strokeColor=#000000;" parent="1" vertex="1">
                    <mxGeometry x="-195" y="-161" width="1285" height="716" as="geometry"/>
                </mxCell>
                <mxCell id="eQaoq6UVIGZGrponW-SI-3" value="&lt;u&gt;Scott&lt;/u&gt;" style="text;html=1;strokeColor=none;fillColor=none;align=center;verticalAlign=middle;whiteSpace=wrap;rounded=0;fontSize=50;fontStyle=1;fontColor=#000000;" parent="1" vertex="1">
                    <mxGeometry x="-199" y="250" width="410" height="30" as="geometry"/>
                </mxCell>
                <mxCell id="eQaoq6UVIGZGrponW-SI-5" value="&lt;font style=&quot;font-size: 35px&quot;&gt;Personality&lt;/font&gt;" style="text;html=1;strokeColor=none;fillColor=none;align=center;verticalAlign=middle;whiteSpace=wrap;rounded=0;fontSize=14;fontColor=#000000;" parent="1" vertex="1">
                    <mxGeometry x="210" y="-150" width="400" height="30" as="geometry"/>
                </mxCell>
                <mxCell id="eQaoq6UVIGZGrponW-SI-6" value="&lt;font style=&quot;line-height: 1 ; font-size: 16px&quot;&gt;Scott is 37 years old and describes himself as a straightforward, pragmatic programmer. Scott is a British national with a Scottish heritage, he has a wife and is the designated carer for his mother. Scott has pride in his work and often finds himself thinking about the next big project they will work on, while on holiday.&amp;nbsp;Scott likes his alone time and often spends his time off hiking, playing old single-player video games or developing applications that he has a use for.&lt;br&gt;&lt;br&gt;At weekends, Scott will keep up to date on the current project and will always be available for client queries. Scott will also visit a local restaurant with his wife around once every 2 weeks.&lt;br&gt;&lt;br&gt;Scott has produced a lot of professional websites and web-based applications, he knows the dos and don'ts of UX and UI design. He views himself as an expert in the areas of front-end and back-end development with mainly hours spent answering questions on Stick Under-shift.&amp;nbsp;&lt;br&gt;&lt;br&gt;&lt;br&gt;&lt;/font&gt;" style="text;html=1;strokeColor=none;fillColor=none;align=left;verticalAlign=top;rounded=0;fontSize=16;labelPosition=center;verticalLabelPosition=middle;horizontal=1;textDirection=ltr;spacing=0;fontStyle=0;whiteSpace=wrap;fontColor=#000000;" parent="1" vertex="1">
                    <mxGeometry x="224" y="-110" width="382" height="480" as="geometry"/>
                </mxCell>
                <mxCell id="eQaoq6UVIGZGrponW-SI-7" value="Activity" style="text;html=1;strokeColor=none;fillColor=none;align=center;verticalAlign=middle;whiteSpace=wrap;rounded=0;labelBackgroundColor=#FFFCE8;fontSize=35;fontColor=#000000;" parent="1" vertex="1">
                    <mxGeometry x="-200" y="303" width="410" height="30" as="geometry"/>
                </mxCell>
                <mxCell id="eQaoq6UVIGZGrponW-SI-8" value="Scott is a senior software engineer at Apollo-yallo. recently he has been given permission to recruit new staff.&lt;br&gt;Scott will be looking to gather CVs and highlight key information within them, including what projects the potential employees have made. Along with his other software engineers, they will look through each project and highlight the important points as well as the good points for each project." style="text;html=1;strokeColor=none;fillColor=none;align=left;verticalAlign=top;whiteSpace=wrap;rounded=0;labelBackgroundColor=#FFFCE8;fontSize=16;fontColor=#000000;" parent="1" vertex="1">
                    <mxGeometry x="-182" y="332" width="382" height="203" as="geometry"/>
                </mxCell>
                <mxCell id="eQaoq6UVIGZGrponW-SI-10" value="" style="endArrow=none;html=1;rounded=0;fontSize=16;exitX=1;exitY=1;exitDx=0;exitDy=0;arcSize=10;endSize=6;strokeWidth=2;entryX=0.314;entryY=1.001;entryDx=0;entryDy=0;entryPerimeter=0;strokeColor=#000000;" parent="1" target="eQaoq6UVIGZGrponW-SI-1" edge="1">
                    <mxGeometry width="50" height="50" relative="1" as="geometry">
                        <mxPoint x="209" y="245" as="sourcePoint"/>
                        <mxPoint x="209" y="550" as="targetPoint"/>
                    </mxGeometry>
                </mxCell>
                <mxCell id="eQaoq6UVIGZGrponW-SI-11" value="" style="endArrow=none;html=1;rounded=0;fontSize=16;exitX=1;exitY=1;exitDx=0;exitDy=0;arcSize=10;endSize=6;strokeWidth=2;snapToPoint=1;entryX=0.629;entryY=1.003;entryDx=0;entryDy=0;entryPerimeter=0;strokeColor=#000000;" parent="1" target="eQaoq6UVIGZGrponW-SI-1" edge="1">
                    <mxGeometry width="50" height="50" relative="1" as="geometry">
                        <mxPoint x="613.0799999999999" y="-160" as="sourcePoint"/>
                        <mxPoint x="613" y="550" as="targetPoint"/>
                    </mxGeometry>
                </mxCell>
                <mxCell id="eQaoq6UVIGZGrponW-SI-12" value="Context" style="text;html=1;strokeColor=none;fillColor=none;align=center;verticalAlign=middle;whiteSpace=wrap;rounded=0;labelBackgroundColor=#FFFCE8;fontSize=35;fontColor=#000000;" parent="1" vertex="1">
                    <mxGeometry x="171" y="317" width="480" height="30" as="geometry"/>
                </mxCell>
                <mxCell id="eQaoq6UVIGZGrponW-SI-14" value="Technology" style="text;html=1;strokeColor=none;fillColor=none;align=center;verticalAlign=middle;whiteSpace=wrap;rounded=0;labelBackgroundColor=#FFFCE8;fontSize=35;fontColor=#000000;" parent="1" vertex="1">
                    <mxGeometry x="611" y="-153" width="480" height="30" as="geometry"/>
                </mxCell>
                <mxCell id="eQaoq6UVIGZGrponW-SI-15" value="&lt;span style=&quot;&quot;&gt;Scott&amp;nbsp;&lt;/span&gt;will access the project on multiple different devices; this includes his work computer, laptop, tablet and phone. Scott will be checking to see if Ewan has properly implemented scalability into his website allowing it to be used on a wide range of devices.&lt;br&gt;&lt;br&gt;Scott will also be judging the website based on its responsiveness across several devices and what range of browsers it can work on. on top of this Scott will be looking to see how accessibility has been taken into account for users of the site who may need to use a screen reader or for people who are sight impaired.&amp;nbsp;" style="text;html=1;strokeColor=none;fillColor=none;align=left;verticalAlign=top;whiteSpace=wrap;rounded=0;labelBackgroundColor=none;fontSize=16;fontColor=#000000;" parent="1" vertex="1">
                    <mxGeometry x="634" y="-110" width="430" height="239" as="geometry"/>
                </mxCell>
                <mxCell id="irmXtFamz5eWyTBFc1K7-1" value="Scott has recently moved onto Ewan's CV and will be looking at his personal webpage which also contains his personal projects and additionally information about Ewan.&lt;br&gt;&lt;br&gt;Scott will want to find the information he is looking for quickly and effectively; any snippets of explanation or detailed choice analysis that Ewan has already done on his projects would also be of interest to Scott." style="text;html=1;strokeColor=none;fillColor=none;align=left;verticalAlign=top;whiteSpace=wrap;rounded=0;labelBackgroundColor=#FFFCE8;fontSize=16;fontColor=#000000;" parent="1" vertex="1">
                    <mxGeometry x="224" y="351" width="382" height="199" as="geometry"/>
                </mxCell>
                <mxCell id="emdBaYGl51DBeo-VG1-s-2" value="" style="shape=image;imageAspect=0;aspect=fixed;verticalLabelPosition=bottom;verticalAlign=top;image=data:image/jpeg,/9j/4QC8RXhpZgAASUkqAAgAAAAGABIBAwABAAAAAQAAABoBBQABAAAAVgAAABsBBQABAAAAXgAAACgBAwABAAAAAgAAABMCAwABAAAAAQAAAGmHBAABAAAAZgAAAAAAAABIAAAAAQAAAEgAAAABAAAABgAAkAcABAAAADAyMTABkQcABAAAAAECAwAAoAcABAAAADAxMDABoAMAAQAAAP//AAACoAQAAQAAAAACAAADoAQAAQAAAAACAAAAAAAA/9sAQwADAgICAgIDAgICAwMDAwQGBAQEBAQIBgYFBgkICgoJCAkJCgwPDAoLDgsJCQ0RDQ4PEBAREAoMEhMSEBMPEBAQ/9sAQwEDAwMEAwQIBAQIEAsJCxAQEBAQEBAQEBAQEBAQEBAQEBAQEBAQEBAQEBAQEBAQEBAQEBAQEBAQEBAQEBAQEBAQ/8AAEQgCAAIAAwERAAIRAQMRAf/EAB0AAAEEAwEBAAAAAAAAAAAAAAABBAUGAgMHCAn/xABJEAABAwIFAQYEAwcCAwUIAwEBAgMRAAQFBhIhMUEHEyJRYXEUgZGhCDKxFSNCUsHR8DPhYnLxFiSCkqIXJUNFhLKz0glUVcL/xAAbAQACAwEBAQAAAAAAAAAAAAAAAQIDBAUGB//EADMRAAICAgICAQQBAgUEAwEBAAABAhEDIQQxEkFRBRMiYXEygRQjkaGxBkLB0TPh8BXx/9oADAMBAAIRAxEAPwD1cB0qYGVABQAUAFKwCmAUAFAC/OgAgmgAg80AJQAsGgAAPM0AEUAEb0AJQAonpQAlACgbTQAR60AKBSvYCEUwCOtK9hdgB1mhgLpneixWFKxibVIBKVgIVRyeKLA1lxpR8yDG9FjoEyXPAQPlSvYjG8vbKybU4/ctAoBJSpQH+e9DdgRtrmnDLzS1brW7tqK0sr7sDr4iIPNFjr2P27ll9ZSgg6TBgg78x9KadiHDZBBI86L2BsABFKwEI5p2BiqaLAQH1osBRBM0WBluaLAWPWiwEPNMAI8qAAiKVgJTAKACgBaAAc80AHPBoAI3oADttQAUCsD7UDENABFABQAQaAClYBRYGJFMDEiRFAGyINACxtQAoFAARQKxDFAw6RQAAA0rFsDApjFjrQKw9KBgdqSANvKmR2woH2FL2MQUMBaYBApWLbClYJUAFOxhSsWw4osdWLR0KxIp2DAcER1pWMWIHpR2LRgDp8QqQwCwTA/6UAYuuobCdagnVMetRsDSu8tkplLyFz0SoE0WA1vMVtbZJUtxJSPzEKmKG7HoqOY+0VGGWyn7XCwWk/kfdfCEDiCBEq56A1CU1HbJwxuXsrOD9szl9iF1hON9xhBt3vh3rkqKoVExBA0TvE1VHkQk6stnx5QV9m29zZll5l7Fbf4nElNJ0W6ylJbSoCZJiDv0E/WrHJVaZWoSbSqiPxTtFzDl/BLjEvhLJ1xFup0d/cJa0pMgSZ2AMH7UOaVD+3fsicD/ABF4S+i0SLpq4dS2O/b71J1q66VgkEkwRsPKBtU10QnGqV7Or5cz5ZY3bWtyy2EN3A0qUVbSBqBBAIKSnUQesRztQRaot6HUKSlQVqSvdMbyKmKrFWvwakggkwJEVAGhCtPB/MOaaAbIuEuLLLZlQKirf8oBiT9KLGlZkbtnSS3qWEfmKBMUg7Nzb4d23CokSCJHsd6aYjYOPapC6EI60mMShC9mRMiaYzGknYBTAUUAB86BMXpvQFANqVgwNMNCGSaBi7Go2ATvFSEwMcUth2JTGHB4oEwnyoGJQKw/WgYc1HaAQCDUgMooAWNtqVi2JA86YMN6B9aCKCNhQSqheKBISDPNKxvYoiaYnS6A7cCl7BOwG9DC3YUxh15oF0EUBYc1Gwph9KNgkgmj+Q6Cj+BhzxUhdBQO6A1HoSdidOaLGAMUgDW2gEqWAOaBd9IbOXaHULNs42rQJUSrYD5A027JV8jK9zFYWDC37x1toJMeJwQr1HUj5UWKrKHmDtjw+zwq4xPD3LV9VsVLbSlxUKCSfzagkCY23JPQVXOairLYY3NpI4Bmj8VuNItxcuYI/eXgKFNNLbUllsj8wgfm6jmsz5UVq9mhcVvS2RuFfjBczalWCZtfucvpdbUkuWDYQpJjwypRkD1EVH/GqL/Na+ST4bqk7/RqzFnDHsIw5/HcI7S7gW7BQl23dxIvqe4kthQkRMwPrWXkclqScH/p0zVx+NCaamqa/Rz57tCwrFL+9xDM+a7+5UxrS3aJvHCHhuEwtOpO0g9OKyZeXkbVL/U1Q4uNdrZzXGszW7t539mq6WgElJcfUtSgd5JIjaiGSbV0kOcIxrRbez7tWwJi5Fnms3KrYBI1JcWhxrcStGkxMTyPaK14Mk8TUcm0zNnxqa8oLaOnPX7GIZlwNprPaMQy7iSwyXbu41IYEEpSsqgiRMGeSBWmWRRkqdoywgnC2qOiXOBdnzOXrpGKYtl+4gIab7u6Qt4FMIStH8SJEH82x+la1NJWmZ2pr8UtGGAZmy/kp5zBcs42zcPWb3fWTguAoOMSVd2rXBUtKiRAG4UFdDTclVpiUZdVSPSmUMbw7E7M3Vs8FtmA2YG4UkK2jb+IVNNMpenomrl98oAZQgAmApR/z9abIpLtsYv4g40oeBCleIJc1HSPltOwP60h6IJHfdwm9xHF2xcXKe8aaSEaQk7pJT6Dkz8+aV+x6ukgw3PeXnHhhjmIw+teglXCgnnTA368dOaE7dDcGlbRYE4mi9eBtyQWwFpJH5x1AHtTI1W2SKFBQ1A7Kgj2p+iLMqQxSPWpiasAOZNAJUEVGqGBmixJUKBtUgvYm80BbQRSsNixTC/gOOBSsGmBExTDoNxQCD1NANgYoBCHigYTQAlABSoEwpUAVIKoKSAzoYCRNJBdBp9aLAKGxINqkDdBQHYUA9dARNAbCPKlYVfsKVjCKELoCBFOw23oI6xTCgqNWO6DahC7EA2mpA3sWgNoOsUqBug3HFKwST2JBncUWFUBEGaQzEqSeCJ4igDW44kDTtzBJHWgaIDGcyWmFr0Wlkb24VyhsgEepUdhuR6+lAK2tHEe17tkuMGtv2XcY7aWjqR3jtvZlwLIOwSpekDj2qvJPxRbjinLezhOK9s+MM5eds8QbunQ+oi2UdTQQQJ1EAQTwR7k1zsvJmpUujo4+PFq6plUxvNGIN4bb/C3jOJJcQr9005pW2VeJUCZnkT6QKywyzyNtui94oQSpWc4xbMtxiGJqdxJS0JSgJCHCVaABtEGJiN6MjtVVsMcEnb0RSrrB7l1HxDy0JUo+ItbJPTes8nljF+Kv9G2H2m15dG+2v7JK1NpeKtOyFaRBHlWOSyWnVI0RlCnRqN6pha1gNLSfzJMCB58VesUslJPZU8zg9IcHMNsWUj9nN93yCANQ8wY6VBcRwu5tv8Akm+S5Va0M8ScwXEXnFW1s2ysklESN6uxZMuOKjK3/wCCrKsc5WkkNrK/Nk24wwt0BXKAfDPQkdasipylb0QlOKXikWfAc4LtnWkrs8PfShYUppbXdrMGYCgRBn06Vcpyg/G3/PopnDzTcXv4OqZlzllnOmApuLSyawfGrBOtASwnUtO2pJUInbyEwPetryRktswrHkUnGWzrH4de2uxy5gVtl/ONq/bW7olvEEJ1sqdkJKVRuDsDO81bxuVGae9Iq5HFlCnFHb80ds2SMoYYMTucYYubQo1ISh/WpRMQEgcjnmtM80IK2zLHBlm/GKdnnPPn4wV41a3dlgVqxZquNTaVvukqQgxwkDkj1rnZ+fSqCOhg+nVJPIznOBdu71nehWNPKxW2KklbQVP5dhEgjjp0+tYY8vInab/ubZ8aD6SO8ZB7R8k5zKncOv2bbEFMhIbug2NyYKNBAB2I3nzrfx+Wpup6Zz+RglBfjtHSbXMKsqY1ZYXiCha2z8iyuSS4w4QZ0pcT124O25Arpp1swNUrZ1bA8UZxKxQQQHEpBIHGk8EdKkiDVEnRQgikAU1oBR7U/QmLMdKKCwmktDCakKwmosE7FqQxKikAVIT2HtQFgQOtKgTsKYPQH0qKGAFSFYkeVR9jCKNAEetPYCUUAUIDOj2AUxMPnUaCwoYIKQwp7F2FFh0FF0FBG9FglewpDCpgFQAKdioKOwdBSGJTsVC0djEgeVFi2w4/pSDbE1BUkHaKfY0kjU8+1btqceWEJSJJPQUgK7iecsLYS4pF43bMW+71y8QkJ6wAevvHzobH12c9zP8AiIylhSG2MDtMRzBcOkhPwSElEhJMa1EAbA1W80E6bS/uWRwZJq0tFDZ/EJc4/e3mF32XbjLmIKtO+wtu/cbKLhSZ1QSIJAIMdY23E0nmgnpp/wAEngku0cJvsUabzlcYtmzFrZCA8n4oB8O6lAatJAmVcT03Fczl8lwdVbOjxuPGStOvkrGec44bnJbt8q5S2tohDTGkJShocARIkda52XkebainZ0cWD7cU5M53fYq5Zr0MNO6NQlXMwZ9dquxryTt7K8qil1oa3rzSnku3DBbOoAAAFBTHQj0qDUnbiyUa8Umh5Ym2tSGyCUvTpUoAA8QJ+lUtybv4L4wS/uY4lhlvcgONNqZuEGYTwse39quhNP8AF7XyQyQk3a0QFw+4w4QG1FJMExJSY9a0xx2tGV5GpU0NV3hSEqacUknlJHNH2k3sX3WakONXDmkEhYgwrYkx0NWePgiN+f6NjjmlSXCZgRIP5k9fmKj42tDcvFps26V99oK9C1AwobyI5jqKjCXTLKV1L2PMGvsRZvGrBNytQWsCTMbbwPLioZ4xcXJaRdilclFdHTctZjfsLVOD3bk2ilEupnzkyPLcD71zI5ZQflFm544yVSRBYhjT2L3amXbhQKIjUYhO/T2ip5cs4xUm7sjihFuq2iIvMMsl946u4DmnclJ2n3qCzz1S7G8UG3vohLpVrbnwO6VjcJmJrZjc5qpK0ZMrhB6ezbh2ZbmzdD5dUFoMpKTCh7Grnhp/izN91O3NWdpyr2+3mM2qMs5vvXLu3cSUpuCqXG9oGx2JBg8A7RqFaociWFJS6+TJPjxnLyh2z2J2M56RjWWbBBxa2d+E/wC7lclLhSFCAfXb6V1ITU4ppnNyRadNbOxM31q4s6HVKTySQSB8+I9zVllbTXY8bUFjZQJn9KkRRkf1oCthBmo2FAdjtRYwjzp7FoWldh0FIYlNC6FosKsKV0FBT9AJQgddC0WFBSGFACVJBdBFFgIaYkvYQRQFiUkMzpMApAFABTSsTdBRoG2KftUgSoSoDF2HnTYlsSkDAc00DdBQ2KrDfmpDetBUWCVBQh3QUUJukIYo0C2FFg1YilobSVLMBIkmkPXoj2cSdxAqOHNpLIMF5yQD56RQPSFXcfDKUHn0iRqEK1HbkHYAD1p2H8HFu1b8QeTcn4c5dnEU3+IOSm0tWVAhuDGozyedyImAOCapyZow97LsXHyZXpa+Txx2ids+b89Xg1XiWrdBhq3QVFABAkrHBJ6z9orkcnnVpuv4OzxuBBbe2c/aRjNwHn3sSSw0n+RYAn2FYnzU6STbfya3xY7cqX8DL48iRiN8+6tuSkB0wn1gz51OM8relp/JVOGN/itsQYihCHGHglaCJ1JSCfc/1ptSbtMmmoJxQrWL2a0EXA0AGNQ3HzBFUPBONuy1ZfNKxbvD229F7Z3YWy6DqSoRpHUA8fpUseSUn4NO17FlhCC8k7RGNpuzrt0LBZUrUltY/KR5eW0j51rklFKT7/8ABli3KVJ6YrV/dWKFN3TYU2VSFc/eoSgsj/EsWSWJVIkbW9S6QvvSEEEhRmKzTw+N0aYZvJpsyvLV911T1s22ZGlSVbBY6n3p483glGTIZMd/mhvf4VhlwyF7t6okxwrrVsM2SLvtFU8cckbeivXuEYlh7wQ6gPMEamn2+QPWOn6Vux5IZV3v4MU8U8UvlfJoubgOS09upQO4PM9RRGLTtEpT1+RPZbtvjk2z6V6ltCJInr4SflIrDyMjxSaXtmvjR+7FUuh/Y4WEFLrZAXavoSSegkkfOAKhlzXFxftF8MTTtemS2PPBrFbH4fwtuOKbc/5dtP2B+tYsC8scm/W0a8zqSr+GVjH7l0YuWk60a1QdJielbMEIuG9mLPKSnodjBlDDVsd+4jvYCVCeTG32pwnHz6WiLg3HtkFjGBDDFIaUpZMakqcQQSffgj51rxS8tox5YeLpjBtsuiStYI8zP0q6clF9EEr/ALD61DjSgtqZCt5PB6Gq8krTTJwg47s7f2Hdq2P5KzK3YIWlt65EKDxSUL5IifOY+dPjZPtNNP8AFkeRh89NU/k9YWHbvf2S2bnFMMbwxq5jQ82O8YdPBBgSCIPXePYHrfdi+mcueBo6dljtPwjMDDfwD7VwttJUpbLg8MeaVCQN/byqd/JS1RacKzXhuIOt2/epCiqAQZn/ADb03pkUrJzqQelTEHWgVhQO7FqAtBTsKCkDv0FAwg1MNL2FRQmFFhQUexhQxKgo6GJvRYPYtSFQm5O9AN0IfOgEJQMzqPsAp7ExZ8hURiUCYoiKmFuxKjQxfUfSpAJG01GhXug5o7HdGR2FDEtsxPpSGLFTFYbVAEIaASoPWnsPYUhiHjagXsrWZ8XCFNYU1Lrt2sthtB8SoEnby4knbffyobJJWZ4tj1jlDA3MWxp4NM26AVEqARPRKepPlA+lKUlBNt0hqLk1FLZ417c/xO5jx1V7hOXXV4dZSq31IMLKYggK9d5964/I57brH0djjcBRV5Ns80YzjjiyG0lT6kgS4oyo+noKxuUpflJ0dCK8fxiuiCYxANLLjiVtgkjqAaoyY/N+mThPwbskrSzYuta2bhQccEqQFESkc7j9CKisrxunFOv0SeFTVpu2QOK2t3hjyXG160g8jr6HpXRxzjlg0tX/ALGDJCWJp3dex1csfGlu6a1JQ6PGmfymqcUnBuLL51kSkkZ4dhveuLtbgFSFglJ8qM+TprslixtWpdD3DcvP2CnQCXbVW60RuPUCpSzKULqmVrA4Se20yStcuqtLlt23cLlu6sqE/wAO42/WqM3KUotNU6LsfH8HcXpm7FsrXN4h24sEyZgt9ASP61Ri5Ki0pFuTE3dIY4Zbu2RS24wUKKvGlSSRHlFW5GsrtPRXBOGpKiw2WHMlPfYc5LZ/1bNavynzQrpz7Vila/r/ALP/ANmyMYvcf7o0XGGMsrceaRrZcTDiFcGOsHhQ+9WQzOcfH2uiM8Si/KPTK/idm+Gls2yO+a/1A2voIMlJ5BrZgyxtOWjHlxy34oqV/hzySl5ttawCJBG5Ctpj510I5E9JmKeKbjdF3yjZIsVdytsFZSUqV5RGn7yPnXH5mTzdp6OrxIeCSaNdxiKEPvtIc8bqi8kT/LAn9aFjbinWuiUppSaXf/oXEbtu4fbbUCUuJW4AOhCR9NyaWLG4Rf8AoOc1JpMwBRc6LxaElTiUq3EwY3+8043F+KYpfl+TJjFWLdGEd25uhSEqUoHdMEHn/OahjcnMc1HwVdFGu8w3CmzaWzoWykjSFL1H3kiurDFW/Zy8mX/tRGC+ZdUT+VQO8CCD7VZKDRVGabMQ8G1qWCpQI+h84o8bVsE66dkjY4ulu9aF0s94yoaFeaZmNuPP5VFYvCL8en/yWOam0pdo9JdmuZbXFcIGC4vjSnmu9lbSVqStQEKbUkjrMj3jnerIZ4pKPtlU8NNtej0Tl7DcMxjBrEXgZtb+wcFu+8wO7dCZBQorAkpIP38q6GOdpJs5+aHi2+y85fxW7sbY4fjBQYCnbC+SAUqKYBQYEgwI3jYiKuRQ7aTZ0+xu0v2zb7XibWlKvUSJqSINUPAQQFJMikIWnYCCYqRF9i1Ak9BQLbCgGFAUFAwoAKACgSVBQCCn0CdhQhiVIVAeKBmPHWgDOl7Ew6+dMYUCoKjQ7oKkRoWDPFA2LG3FAtthFA0IPPpQDFiDNR0FidOaQUB9BTrQxKKFYQaQUFAJUBHlTQMjcaxBy1aTb2oCrm4OhtM8Dqo+gH9BQ3Y0iGtMMtMKuV4ncurceQhLKnHFTG+owPLccUiV1pHnb8QOc13xxO8dujb4fhSVMshCNPeO8SBJlSpIBiQBXA+qciTmsUGdr6bhioucls8Z4heKxW6We9KVBYKEg8Gd49vOue39uNs6qipSpDPEXsNw24JdC3hvCUT4hHUmowhm5Mb6Q8k8WF12NXX8KctW7nuVd0oQsRKkHrVqwZYtpPaKvv43FSrQ0ttVm732HXAX3Z1Jg/mTMwf88qm4Nqsi7BTi1/lsdPYpY4sCpKUsvEQ40RsT1I8qshheL3fwQlOOS70/ZE2GI/sy/ct3RqaJCdJ/igyPnWh4fuwtdmZZfsy8X0dHwrCLZ60tsRtShcmWyoQFpPKD5GJrkzcralpnUg4yipR6Y7xHDUNKS9ar0NqGttfBAO8EeYPIqzFO1UiOWNbQ1YxVuydVa4o2EF4yhxP5CfM/yn14qrkYnNXB/wA/JLFkcXU1r5JNVybNSrkAagAFwZStB4P3rmW26fo1NJKx9d4dhuJMIvGPCpMd5p3U0rzI6pP1FOGWeKTi3/8AYSUZqyqY0wrD7lAedNu6sQh4btOjyJ4BroYn92LXa+PZny/5bT6/ZEYjjF3Yth15J0D87Z9+Uq/vNaMWGMpfspnlcVbNjF3bYjaaW3ZKgf3iBu2rpIHFKeKUJeTXQsc45X2aLdhq5bXa3bOm6t1JUsJ4UkbmKk5uP5RemSUPL8ZLYt7ertFL7txKR3aoI5Pr71HHFTa/keSXj7IC3vBcX0jxLAKgQOAUifvNbHGo16ZlUnN1ZtfunGk2d22AYSmdv4dwofSPpUYpO4knaSkicZtGy2zbhcwkKgHlPvWOUnFt1/8A6bIxi4qJIYg+E2r1shKUpCFKIiTO0U8SlJJshlpNpdHMcRUlqVs3gVJ4IAj7V28cbStHDyupNpjNt1TqVC4QHErTAUNlem/vVklX9JSp3pqzRqXbqDjLqgoHqelS8U+w/pdrTNqHg+Rq2iIVUfGkSjO1Recn5jcwS7au2hCm4UBO56bD/NqxTg27XZthJJUz1vk/PD+YsvJzRl26Z/aNmAzcWkgakgxt0SqNwRtxttV+Gbarpr/cz5oU99P/AGNuY+1HEswYWjDcOvmUhA+IC0NKaJcSdKxIAC9yN4HFa45XJUZXgim32ek+x7Od1j+DHDsZeYdu7NLQQ+2AkPoUgEEpBICvMAkEQRzWuLtIxzj4urOkoECRwaZWzLnigYlABQAATQJug5+VA3oIigSdgBToG6FiN6kHfYb1HYWJ15pB2G/nTYaCj2MKOhVYlPsPegNCHdGNMDMGgAkigAoFYsUAvkJ6UBQoFAIT2oG2LNALQbVGhXsIk0UF/AkRvRoNi70WFfIkEdaLChIosKroBPSiwo1OvpaBJkxvtRYJFWbxFJffx67b0Jc/c2+rdQbkRA6gnefUDpSv2T30cx7Tu2TKWF4Lc2NpnqwZu7lKkBplQcWDvIUYOnjce29U5M0IRey3Hhm2tHjLtSzBY3i04e1mB/ECFm6uHVHSlThBKQlJA2AV9zXmpvynKb99HosSUYpJVRzRLlttdrugJ2gHcRIn6VTOEpNxSL1kil5Nmy7w3Db+3W81cFfdgEKSreeeOtaMDni/GS7KMyhlVp9EGAth1y3S9qbcHhUNoV0n34963upJSqmjIk4PxfTGbStLhKVlDqDHGx+VWSSktoqjJxfwZ4gpS0pxFLZAB0uKTyg+vpUIKvwbLpqUl5r12MsQAfT+/cHeHdK+hHr61oxpR0jJlbkrZfOzXMILa8AxEjQ8AWyrjUPI9Cf1Fcv6hg8X9yK/k6PAzqvtt/wX961Nzbqt1kqmSFDYq8/ZQ+9cuOTwdnWcFNFexm1i1XbYg2VoQQmQYIH8wP0/2NThkbyKUXsqnHxi01ZEWd/fYE4i0LourInTEwtI8wD9xUs+CGdNrTX+hXhyyw67TLJYYjZ261X+FvpUyE6XW1bED2PlXOliySXhJbXTN7ljf5R18ocXt9ZXlmtp5tL9moEutxKmZ4UPNP6VLF5Qlt0/X7FJeUXSteznGNWt1hMts3gfsnILSxvpJ3g13OPOOTbVM5eeDx/0vRXm8VubS8TcKt1NOgwFoiCPIjggitzhGUauzBLI4StL+5OYRj/f4gylcAx4FjoOqT/nT1rHmw1BmzFn8pI1ZjuAEhxJOwUnfnpT4sH7J8mSoiMFvQnEWlKMhIIj5T/SteXHcNGLFlanRLIcStvuzpDdu8B66VT/AGrJNeMrXbNkZWmn6JBnEYUlTCgpYblIJ5ITMfOCPnUPtWmpFiyNVXolLq6YvsIdvLYf6iEqTPJA/wCv2qnDCUMvjInmkpQtHM7/AA0rDl4AUsvEONgjgKT/AHArvwn69o85lipNyXTIx191pbbbSwqEgmOB6Vaopp2VN+DVGTXeOPDUZSrrUXXoacpOqHDKDIS2jVqmIqt17LoqtIdJul2yikKIWkDeesVWop/wWOTXXZ0Xs4ze9gqbhTF1cW6ylJQEqkDxb79N9JqnK/Caki3EvODTOj4BjN/h+PO4xhTmtpRDiGuUqSqCUkkcyIG3Inmr4u3aINNrxs9k9gOHd7lUYyDrVdPy8CgJCmwSWzsOg0jjkmtuJ+UbOdlh4S8Tt7S1tuONlQU3sUb7p8wfOrSrvocwUqKYO1AqCN6mJuhCKjQwFHoXsX1NSHdiVADIVMXsSBQDdC0B2IRUaCxKQxY60+hMSjsLCi9DEosAqQCxQAo9qADaeKWhMDz0pjqhRUbFVsSZ4ooOgiKOg7DrNSB60LQGgqLBKgiigboKKCxJ86QNhB4igKEOydqAo5l2ydr+X+y7A3bnFJcunklFtboUQ48o7aQY2nzqrLljiVsuxYnldI8c9pHar2i48lzEMz3CsIsLlGtFvbr0BtJjSnTJPEAee9cvLzZTtRR1sXEjjptnnvGMbuX8TKgpSUL3Skq1E++3NZ2nOHlJ7L7bnTWhpduXCUgrS4pvqrmqY+M/5Rppw9aI99m2eRrYuN4mOKuU5p7RQ4xl0zFFjiiWC9bPbo2I51JJ9Pn0qSz43KpEXhml5RfRH3b96kalQqDMjma2QUGZMssi7M2MRTeAqfRpWPzwI6c1FwcNJ6CGVZNyWzep+6tHhc2aO9bcRDjZEhQ6+9JRjNU9NEnOWKSlHaHBZw2+si5bkNwTrbWN07+XPM+dCc8ctqwbhlhrQ1sWzavpUhSlInwKQZ0kdRH3qzJFTi7Ksf4SSXR1DLGYl4pZqYuH+6eCdBPmqNlevr5/KvO8rAscrid7Bkv+pkn8Q3irbuGYskWuJW5IMiUOoI2Pqk7VjmnjayQ3F/7GuMlO4T01/uis43aKtG1B1hT1smApKDK2umpB5I9DvW7BkjlXdP8A5MubHLFurRVzeOW6zcWV53qDIJEgn0Wk8GtrxWqkqZjWWtxZuss23VkSyFKQ2ozI3LZ9PMelVT4kcm/a/wB//sthyZQdev8AgbYtineIlZQUObko2Cx6j0qfHxU9eiOfLasrqbzuVFoL1tdUK5T7Gui4WrXZgU1H+DbavIbfBSoGZjbrUZxbi7Jwkk7RKXRN0XGVcKQrcjaY/wClUQ/GmjTL8rsr+GakXTbmqCkEyPPTWybuNHOgqnZO4bek2bjikk7JJn0mKyZYNySNuKfZixfAOnQqdKOY5G1NwairBZE50iXwvFUpwxTXd6kpEe4Oox9vvVM4NZEy2EvKLRA3OLdzZO2zICkkHYjfTPH13rfHtP2c+TUU0iGYt0aFvLVJP5fn/tV7nbRmUG7Ziyoh0txxBG/EUN/I4q3SJDCk9+tSliUpdBHsdj/SqMsvGi/DHybEAZubhTd04QDsFpTwY+9NNqNoJRXlT6JPDmnrJaQy8h2QYPTYzuD7CqZtT7Roxwcf6WXDLuYbzDWirWru1RqQrdJV056RNVSm4yXiWqCnF+S2erfw4dteAYRZnLeMXqWXC6Vtl1wJSUKKSUAz/N05rbx+TFKno5nK40ruKPXAxa1v7Zu9TetnVCClCkqC0mBMjkSOfpXQTvaMLTi6ZPtqa06Z1bn82/60yLNmrpAp0IX50hMB+tTGLUfYWIPej0L2KfejYUFIYAedNCbEI3qQIPtQFB1mgANR0CbEoaoYUgEJipgL86AF4qNAAHWjoi3YesVIf6FoBKg55FRYVYGkMJHFNiVsIo9gwo0FtBUgSYQPSoB2JzxQDdCnagP2zW7IQSPKgZ4e/EVmN/Ge079pm+ZFnlmWW+8KVEOhOpSgnYFW8JHnXL5bbnXpHV4iShfs4LmjFX8w3BxHMd89dPgBxtGsfu0EHSjSBA6e1cTNyW5eMFSOzx+NFryltlEuWWXrpDrrfdpCxuDEjy+1XRyfg4p3aDJh8ZJtdMjby+u7G7ctzJQDG3UVZixRnFSXbKZ5XGTT6GCkNXUrS1pJ3OnaK3x12YpNSsxaD7h7pq7B1AwpXRXQSON9tx1qc4Y1G2iqOWd+KYzvHry3JQ61qKT4tKgoelNY4SpxB5Mkb8tkczcAXYcCAJPQQatcLiUfdqdFnwdQugosrAdEamV7GfNJP+9ZcsPHtf3NeKal7p/BYbHCWLslwtoS+kwtBGnvAf0PodjWWeVwdXo1xxRmutmm2wezwzFO6uLVbVq4vUk7wCduvH+elWZMsp4vxeypYVjyW1pmi/s7zA8RU7bqPcFw6VgHSR5HyIqqKjlhvstklil5R6LfZ3jGbbAKQ8GsXsEjSJhSwOQfUfcGudLHLjzaauEv9mboTjmjSdNdEeceQ28EYkgsqCSA8kSlQncEdD6VF8O05Y3/AG9li5LTSmv7kXiNhhuIOfGW4QCs7OtKABE9eJ+tWwyZsS8Zbr0yuccU3a/2IDEcGKAT3wA5Bkjf51rxZ26tGXJg+GQrylsILNySps9eN/etkFFyuPZjncFT2MVJBGpt4OA9CNwfetC/0M7WrTN9q0UvIcCpSr8wHnVc3dothC6ZNqeJeCEJkqSQogedZkqWzW27IhSQ1MJ3I336GtKdqjLKls2rumkWPw7chalalCOBED+v1peDcrYecVGloafEqZBZSCFLHUbwP8NTaT2QU/Do3W189atdyCdx8xUXBPbQ4zlEZ99BIUNydqspMqbabZmoH4dKQo+MyfQHpR0O20YoYcnUEkFRJJIoc77CGOXol8GsnENuFOqSQlI4nfesmbKm0jZgwvZuGGNpcIUYg7moffqNIueBXslmLZgqUruxC9h6AbDpVLyt9suWEcYh/wC77RsLUdSSVKCR0+nSjC/uSZHKvtRTGrOKXLdyVhS29M7g8GtVUqRl8299F8yT2sY/gZadDrzjKCJS28pJA6iJE8cetWRnKEqiyvxUk349nrjsm7aMrZoZaLWO4rgOKFKu5BvFuW7qpkAtrJT8lDccGa6WLPGap9nNz45J6R6ayrji8cw4PPoQm4aPdPd2rUhSgAdST1BBB9Jg7g1aZWq0ycAnpQIDTQmFHsEqDYUaBOwImigsSI4osK+WLvG9SBaD2FQHb9h71MW2B9qAQkxzUegt9ISKOw6CkMQ1JAZCOlMTCKjYUH6UewSS2LzUh3QVHYqCkGxJqYxaixKgo7BKgoQwooTdCE9KkFij2qLBUBPzpDInGnFt4fcvreUhDKFLKUpBKoEgSaGxpO0j5ldruYLRGYbhWGuouHe9L7z6UwO9MEgTzB615zkz8sj2eh4+P/LSaOas37utd0+73jj8qPTfmawTg5JJKkdLFNR3Zs1pxBBbeT3Sf54ME9CYqEYfad3ZOclNbRX8Tt7u1dQp4BaBtIMyOJrqcZqSpHNzpw/JI1sW/wC8Bb8U7x/MNprSnXZm8U3ZsvrJLZF8yCqR4lo5Sf8AiHyqyE7i4yIZYU1KIwu3Li6cJKJQsQtQ5Qr+3rU4LwX8FOSfkyDuW7hlwiSVASAR6+fWrlJNWU+FO7JPCr7vBD7BWEmQpH50D08xVc9dFuKn2i04bfubLYf+JSnzMLAHT3rn5Yp9o6OKbS/Emn8ebUwPiWQ60U+IlMgjyKfP5g1lWBr+l0aVntfkjF/EMPvbVSrWSVoSpTZUCSeAR5mBv9+tShGUJNS69CcoTSa7IS2vLa0v03ltqZuW+FAadY8iKuywc4OL2mQjkjCfl7RKvYjhuYUKRdpCbhCiO8QrSojz/wA+dYfHJha8VZqU8eW03RFvWd3atqcbU26OjrZifRQ4NXxypunaf7KHh8Vad/shr5xySVWziJ5UyspFa4NJaaZRkUvaIt0qUlUanEnooz0qyLV/BBwdBbYX3ipALZV0OwqUsqWiuOK38EgzhriB3a2lBQM8c1XKdvRdHHSolLXDDrWFBSHTsmZNRSv0N62yNu7BSXFMJSAtCik7c7T/AJ71YnTplU4p9IZKw8oWEu7D8xBSZ6dKtUilx+RSw0wlTiyXFRKQREetJO2HilsYBl9RUopATO8Sd6m3boi1swAQCNU7dCKW0gSTHbTjKlJSlnWfLYzVcr9svgot0kSVrhj11zLZHQ1iychQdWbYYFLpEsu7w/B2U26dLr0eKI2NZIxyZ5WtI1+cMMfHtjZDyX1C4dWAk+X+f5NXuDWkUfcTflJj23ubVA+JecKERAnrFUuEpSpImskUvJkRjOOs3rgQyg6AOSeR5ny3/St3H47xq2YORyVkdJaN7Nt8Rhveur0Q4nxHbVA/3p/c8cjSEsfnBMlMLZWhYcbRIBmJ+oqvNkr+TRixFywZdzhV23eWALbRKdWkwZTEn671XDlWqvYZOKu60e//AMPGc0YzgjuGNOIFwEJfWSAPERpMARHH2Ndf6dyPv4/y7RxvqHHWKacejslpeXUlp9tDi9UAoBBjnj29a6Bz6t0h5IVuPpxQISgAp9AEUhW0FPYdhUgugJigEFR6B7YGpBQRFAKhCYoBCE+tAdugpIYbzTAUil2IPemFgJoDSYRQFizUaCwAqQOmFRsEqCJqQWFRsElVhvM0WCQnI4pDEWpKE6iCY8qBK2KhRKArTpkcHpQNo4f+KvPNzlPIa7XCb7usRxEllIDgBS3G6o9/61k5uf7MP2zZwsDzZNLr/k+aObcSeevlNLjSiA4B/Eqd/XkmuJhgmnOXbO3O41F9IZWTLlyAVOoQSPAkiNqU5K6irJwVLyk6+Da6zetEkXCVAD8pEgj/AD0qUHjStrYSjkl0xjdLTbo7xpt1CuFpnW2f7VoxbZmypxV1T/2NJxG3uLcISQxct+Z2Imau8Gpb2mUrInCumhUY0oj98jSsclO4X71L7e9PRB529NbNRvmFqKmiW1xEQUn5edCg130JzT9bGy74SC/bpcQNypAnT8uRUnB+mJz/AFZgx8MVh5lLiAD/AKg3HsR0NE00vFiVN+SVEpbO3LDnxDLlusE7nbUY86rlCMlTLk3dplhYWm4tvim2JbGz2katJ6avT1rO4uL8b/g1wqW6NN1Z2SG+/YSBuDI5B/zrSUpPTJPHFK0iOve/IJW2hzqSOvuKmpx6srnGV2kRugd4FutvNf8AGlQUB9alJqrVMUIP/uVDlq4d1pSm/K0jg6NKvpJ/Ws00nujVBNdsk2LJ16Vd/P8A4JqhOpaRoUNWmOLDKq7m4715nwDeQCkVOefwVJ7IrBb2iescmtPEBduuBsFmYn3FQjmrbLHx/VEtbdnmIag040HSP9MJ5VIPFSfISfiiP+HbVslmMiXgb+IcYUhTI8SSjcCf8+tJ8urS7E+KltkbiGSrV6+VpQSSCsGOSY5qUcze2VSw3pIhsQySu4t+9UwqUq5QImP6bVY89LRFca+0RLuWmUjUtqQUlJImBIqcMrZXPBsr+JZbfWjSwACFefO1XQypO2UZMDfRDqwW8QSly2UNP8UbVa8ia0yv7Uk6aG+pNor8ipGxnzqDXmOL8H0DmPvoSUgqAPBBj+lRXGg3dE3y5Q0kMTcl9ZcKnFKPMn/atKxqOqMks7k2P7Rt5wanHgAOKhJJdIUPKfsdPtXNwoNpktp2A1bVBeEFfsucZvS2jbaYQ6p0uKTrHkYANE86SHDjzbsnnrN1dq1boSAPEo/p/Suf9yP3HJnQjjagoklh9m4ywlsqKlJOwjms+XL5O0aMcKVFrs3rbummlwstnUQDyDI/SsUU1NyRpko+CiztP4ec3XGV8wIZRctvKuzpQFyFeEGBO4MgxHJIrq8DO4ZfGPT/ANDlc7jxnitvaPc+XsSYxK1axRoJ0vJCVAfwnqD869Onas8u14umTC+Z+lMixDQCDpJp+gbYUhhQAUAFNA9hUhIOvFK9BsKVCsQ1IkJQF0FL2Ao96YBv50rFsX0pewQCfKpBpBUWgQUbCgpAgp0FhSBbCd4oGFACEmaAMTqUoARAO9AqAoCQpa1EgiTPAoGeO/xhYoq4YVfOFvuGrj4S3jnWhJ1COsTXD+qN5JqK6R3fpaUIuXtnhq4BursvLUSAZg9R5GqZfjBRWjU9zs0KLpflQhUiI6VLHGKjSI5JNu2YuXT6VaXFFs7Akjwn19KnHCpKyt5nF0R19cXdu6pF20AQYC0bgjzq2GGLpxZXPPJaaI9d004AoqIUkzJFaFCS0ZZZIt9UaFXOgyhew4O+1TUGVvJFPTNoxNGn94NxtMcioODtpFiyqVWx5aXzClgSkg8pImqZxkaYOL6Ja0cwt1wqcBBj+BsyfTYfrVElk9GiLxXcv+CdssGw+6ALKVk8wpokk1S55k9mqGLC9k/h+CqbOi3SlJI0zoI+W44rNPLJbkr/ALmmGCL1F1/Y0LydiK3lOW7yUcgoCtvlND5UVqSY3wm3aZtbyPiytOm1VJ/jCwR8p+dVPk4+2ya4k/SNC+zrFlK/f26kgek/oKn/AIuK/pGuE29qiTw/srddUFqs1EJEzwBUHym+y1cK3b6LtgXZahCQpbKIAkApJ0n0rO+TNukaFxY+i2Yb2frEIFsdExBEkD1qtyftlqwUWNns/wBaQ58OD0UUgD/PpUo5EnQ/s2TdhkpSUCWtcwACIIFQeXbSJRwa6HV1k7Se8aRpVEQRJpxzUglgTIRWSm2VJe7k6W1KKQN4HX9BUlnbV2Uvj7GWJZGtLhtSrZshJ3KYgfSnHLuweBV0UfGez0s6ltLUnrCkT505cpQZW+NZBP5GbeSlp1spKjOojrRDPK7k/wCxB8ZLTRDX/ZyWUKcaZK1RMBW30q6HJt0tIqnxN3RR8YyUtlZU7blPMbVthyGjHk4aoqt9hgtnC294BxGkf4a248ikrRzcuLwdMallltcJ0oJ8kxPHlU1NrbKniRmhlLkodYcgcLGkCq5za3Hv4Jwirpr+46bQlow1G/Ek1nbbey9RrodM3ayoIejpAT/WouCS8kWKb6ZO2zbfcd648lIETJrDJu6SNsFGMbY2fxxgOts26w2VLMK89o3+cfWrlx203LoplnTdJktheIDSh5cJe3SryMHms2XE1Lxj0XQl5K5dnQcoXvcvW+J4a+PibVZdMblUEHcekSKli7paojlqqfs98dlt9h2LZftMdwV+HMTBffbS5qQXZOuAeP7CvV8aayYk0eT5EPDK4o6a24HEA7bia09GYWkAfOgA9qBbYVMb0FRoVhRYJN7YUMYUWAVIBDQAHzigWxKihmVP0JhSoLChgnYUWFVsKkCdhUbB6CiwS+QqQmFRQ+g3obsEvYUroGrMF6gPCAaAa/ZkkEACgbSXQ1xm7bw/Dbi9eV4WW1OHeBsJ/pQ2kgSt0keF/wAT1+5iWVMEvEBLTFyhTi0ncl1QGtRPqTO1cPlTUrkjvcOLg1Fs8oYYw0u8CLhyEKOke/NZcrl43FbNcEvN2yyHDMOFsC3cJ1dBpSTPE+tUYsmRNqRfLFFqyo4ugNK7hTgKd4J6/batkMj9GSeNdMrl0tTALRWoo/hnfR7f2rfCSe12c/LDw16I91alEqKUKT0UBx71emqM71o0rdbTymCfI80C8VexG0l9Y0mAdoNRcixQT6VE5hGWXsQUnQlR3507H09apnlUOzVi43n0dMyv2Yu3AQrukgnYkAn/AGrn5eYkdfDwWl8HTcG7LHUFJCQQRuQ2Z/t9q5+XmXo6eLgtKy6YP2ZPtqS53aQUDqgzWSXI1o2w4qiWFGRrArC720adgRJR+lUSzz6suWCPpEg1kfBEhPd2ikT5HYVQ2m+i1JrSJW07PcMcM6J9ClJ/pUozok4NrZL22QLG2hbdmhZ8tIFTeVtaF9r9klZZPt2VFXdaCeh4oi67YOPwO1ZUtVrj4VAPmBzVbnsl46HCMus2yQlLUEHeh5NgoIct4SE7pRzztUVO2S8TXcYYNBCkj3im5kXGyLdwtK5QWARMkxSc29IPB2MrrBmZ1pYAUOADFCyySG8SZCXeXnXidQmSenFRVt+TdkPtJFaxjKb7W4AJ6Kjj+9XxyUiueK+iDXgS2jDyIV9QfapqSsr+21por+YssMusqIaSoK52rXDL+yieI5NmXJQdbcWGdQTOxFbMXJUaSObm4ynZzbFcu3FmFFkKGk7DnaujjzqTpnIy8dwTSK3dXd2wYTJgbxIitcIRezA5SgYN3tyFCVKMnqaHjjsSyzeyRZvkpV3muTwZNUSx3o1QyVtj56/uVFKyshAEBM1VHDFOktkp8hy/gxZtlqeTdpckK5g9am2qcWJJupL2WfwOMlpCwlSvEneP83rnU1K2bluPZO5DxR61xVtDq1trCgCoEynfpUeTGknFk8Mm9SZ71/C9mJVxYqyy+2T8Oty6t3UpgKQqCR6bk7e9d36dkc8VM4f1PE45PJPs9BtAQYEbzXROS0zM70AlQART6CxaQJUJT0DYTRQbQUgtsKaBhRoEAqQN+hCaXYJUEGmFiUkMypgFLpEe2FRJBTukJqwpB0FAwoB7Cpi0loPlUfQN/IUUDdBQwoQiaKCwSQAQT+X9KQN0VDtJxRmxy3ftLcCVu2b0EqiPCR/WoZXUWy3EnKaX7Pnn2056RjmBYfhVs3o+EQlJUkykbDVHmSZMxXm1lUpNfs9HjwuP5M4TcM3Kz3iQspBk6RMetaYyjXiyvJBt+SJO0u03Fslt1aCUiJmCr1PrWDMpQlcejdicZRqXZE4xcLeSWXCF6d0rPP1rTxo+2Z87bVIrVy84BDgBA6104QS2jl5Zy6ZGPvkGGiUnqJq9R9sytrpGFuyu4dCEAkn1qMpeO2ShG3SOj5PyA7eLS/doJT0Rv4vpXOz8tR1E6/G4TntrR3DLHZ6whtshgaRBAjY1x8vJlJttnocHEjCqR1nLmT0ICUFkIA5hMVinl8ns6EMCR0DDMFt2W9ARMVnnkNUIFkw3BmoEtnfk1T5smo0Pzlqzd8QifIpqLnW2SSFTlJgnUDPn4YpqVg2iSay/btgRvt0ptoQ9bwttG2oRHlQm2AirRs+HTEc7UnK9AlWxTh6UiURSsLs1qtyBBRuai5MaVmYt42IMmhNi6NC7NBWVLVt7UvdsJArD2ZkKHiG0ipJ/JG20R9zhUgrSQRPEVGTVE0M3MNQRCUQfarIuhPZFXeEpeSptafD61PXZHp0VzEMGkKaU0P8AmqKk0xuPkVPFcGUlBZdaJHp5VdHLToqnC10VLEMvICh3TRE8kj9avU322ZHiRQs4dnnxLaru3QQoGYG1bOPyadSMXJ4tptHDc35YuLJ1Ti2TsCZiu3xsyapHneVga20VX4ZYR3iZkbERxWpSTdGFwa6HNrauOgHUkK6bUSkl30EYOTqx8Le5uYQd1o9Kq84p2i5Y5y0OLR1y28NyhMA8bGqZry2i6DcFTN37TdvHUvseBSBxVf2fCNMtWX7j16JjDcZW1esuhtWoK6GJjpVM8LcH+i2M2pJo9vfhIxF1+9vLkIcUbRpDkhW3i9p6SPnW36W7bS+DnfVLpKj17bagkJWuVq3IPn6V2jjNJdGZ5ppWRboKOhphSE3Qc9KbBOthQgYUMFYVILthUUDCjsdUHtR0LsQ+9PYUJQhmVJgFHYugoqgsBUhhQLpBIqLoVhQiQUdEdsKRIKBMDIoBOxBBNAzTeLS01rLgRG+r0FNiS+Tyf+KDtMZwRaEv3a/iFoUtq31wkNEQj8u8mVKO/wDIOhrDy8qivFPZ0OFic5eVaR43ucYuL9hSVW7a0LUoyQTv1NeaypKXlez0uJOlGtEK7ZlKVEvttJTyqSI+YqzHmtrTZGeJJNtkLid1bstpKocI4daMH/frW/GpTe/9GYpyUVor13cGYS6pQ5GrcxWrHBfBky5K1ZHvKJlM87VoiqMc237GXclbm4nfarHKiCjfZ1Ds7yMbhCL64blaiNCSnjeuPy+Uk3FM7vB4bdSkv4PQ+UcnBlCFLQCuNx51w8ua3SPTYMHikdUwLL7LKUK0wR0isc50rNsIJFvsLJMaWW/EOtZ3NvouirdFhsbHukaiiFE1W38k6pE5a27kJTEDzik27HZMsWKSAVJGqpJWR8jf8MQN4qW0K7E7hJUdJ+VRbYzJbRCfOOhpqwVPo0KSg8pO/Wkx7SNqWRpkJ+c0JEewcSVbFIBptUNI0LVsRpk+1K0go0LbKjq0RQrbtoO0ASpzT4QIHFDVgtKjBxsK8OkGovboa0aRbFSSY44NOFvQnoibu31SAJNWXXYmkRd5aa06Sif6VFsPRC4jhjbqSr+IfeprYm2VLE8OAHibIiYrR5KqKJrVkE5hocQpDqAodfKha6IPao51nTs+tr1p3umyNXQVuwcmUGrMHJ43knR51xrB3sDxheH3LcySoGBuOP713Fk84qSZ56eJ4ptMaXuGJaULu0J0Hr0B9aUMt/jLsjPEl+UTFxb1zbhDThS+3uEjhQq2KSdS6KpOUl+LpjUul7wOJU28BIChANWqMYq/Rnbb1Ls0JUphwPMg60/nTRKKmqFByjKyatrlt9pK0zrnkdf9xWVQ/JqRtU1ONntb8CWLJevcStnSZca0ieDEH+prR9OgseSUTF9Qk5wi6o9uo7txpBCRpgECOK65yBedzQJiUDCgA9qBN0LQHYlNAwpAgp0DdBUgYnyoAOnFAbE9qXsZl1oYBTF7CKAbFqPsEJRQWFHY7oKEJhSGFPoVgfaih3QE0aE2wmQdqQeyv5uxJjB8CvcVeQlQZYU7pOwKU9P/ABGB86Umkm2SinJqK9nzO7Yc33ue833eIXJlhLkhQgACAB7bACBtt615nl8nzm6Z6vjcdYsaj/dnO7q/cYLPwiP+76lAnYkkHrVMcKkmpdlksjVOPQ0vb9YBd7oqTz4fI9avxYl0mUZMvtkBid7h6kgvIUyVjZQG4+RrZihNPWzJlnCraogne5cUUtPBc/lJSQTWuKpW0YpSTdJjFxKuhJJMGp9FdWWXJ2XDi+KNsKRqAPNZeTmUIs3cTA5zVHqHJGVGbdtuW/ClMJSa8xnyuTdds9dx8Sgkvg6zgeFtttpBRvwDWGcmdKC9FvsLbSoJI42mqWm2XKJZMOYShskCnVg3Wyw2luVhvQkExzUKTYKXySjDZQ4EiQKcVsGx8VhCRqJ1OGAAmat/CCuRW7e16MihxQCUNlQ6qCf6VBu/QJv2bQyANbiVjy/dmotIkm/QLttQO5/8tOgUqZpNspRhBG3Sk1Q3KjJVo42IKSkc7iKaVPYKSa0a1I1GErB9ZodBbS6FVbbSk+W8UqVgpWa3bVU7kgz1FS0uwt+ka1skAQST5xSckmK2aFNLSSpXPnUGySsCytKeJ601+OxXZGXVtrUpU6STSa8t2STI24aE6VjcbT50vdB2RF6jkRU7vSE9Ig8Usm3QUmQY2irY2RatFZubQtAjpVvRS1TIi/tA42qU8ChOmRcbRwvtPyi3eOKukNBL7RBSrzTG4+1djjZlVNnF5mC3dHMbZIt3e7uAO4eUUOA8IUeD7birsqfce1swR099EXi+Grwu73T+75Sr0/zatGDL92NeyjkY/tStI1hbF0n4e4TOr8qxsZ9atcJQ/KL/ALFcZRn+MkNLvDVJIdSdojenDOm6ZDLx33FmvD1Fp8sOJlKxt5T61bNdSRDG2tM9S/goxe4w7PzDbS3VtqBT3IImVjT8xMfQUsDrkpr2iPIjeBr4dn0atlJW0laDsoTv0rsHFao2GIoIiUDCnQrCjodWFHYugpB2E0DCpiv5Co0FhTQN0IaYxKAFHNAC1FiQUhhQKwp9B2FCG9BRoWwosKbCkCCgLEJjpQN7ASoFS0AR0nigFo4j+KTNqMtZAfSy/pffSpAbHJSUEA7eROqPQVm5U/DG6NnAh9zMr6R87MTuEGyU+7KQ6d9+gJry0E55W6PUTlGGP+SFdSEhCmiShSZ08yf8mtiVvaMrdK17NbOJF1tduEtN3LYICFDZafIUSjT8r1+vQKTaaemQ+KpsrxJRcWoStJnbYgxV+Kc49O0ZskIz1JbK5c27TaoSkqE7dK6EJtmHLBR6MGG3HFhstRuCD50SdChGTO1dkWVysNv6DK4Ko8vKvP8A1Dk3Lxiek+n8dRin8npXBcNRbsoIAExsK5Mmoq5Hdxx+C4YY0lOlSEyBWdts1RVFgtYCdYIM1FoknZM2JKkJTETRLVB2WmxRpZQFRt1qLaTBIk21EAAJANJP4JpJ9m1sqC5QogDmnbZFr0b9XikK38wKTHX6NhKlAHUSadCTpmIC0hRWrUT60kkht2NtJaJgSVnfaotJdE+xzrASAmJ60UuhUvgXWojSTA86KEmkaXVkflV8wKaaGlY0U4pajEz5mi7fQPRpPeK6kzO9D6oNCaJHJPShB7FUCfDBSCOZptXoTGt0ClOpMwOtSapESMugFo8Ek+cRVdfBNKuyBvQpsmTJBiKavpC9kTcAulaSqOgqXk1oi0V68RpJQ4IIq6CUnsrkvEirhuVQU7K5pz26RCCKXm/Bu+ZW423KiNhV+CdNFGfH5JnAcw4Olm5c0twlwkKSem3/AFrrqerZxJ4duhjc27N7YobuEl1aBoUfPyPzH3qrFJ48jcemLJFSglJdFOdZNqXkmVhCpB5Mf3FdhPzS/ZxpR8JOhyi4U6lKFEHUOehrPKCgaIzbXe2alWygStKSSmCRHnUoZFXi2OcGto9M/gctRedrTLjqzpbtVqgcKUBI9jNXcbeeP8Mycl1hf7aR9GmgELXAMGIPTiuycV7ZnQIKehbCkHQUB2FP0FNugo6G0FC2gegpCsCKd2DD5UWFfsxNSGFJAKOaG6B7FpMOgooBaQBT7EhKKBvYs0hiU+0LoUijoOxJ6+VFglRihWs6gIHSkP8AkxuHe7QQgSQCqJiQKbElR46/GFiF2jAbRKnEONOqfSW43BBRJBjiSD8jWHmpvHo6PBklI8aY3brdYSWQ44gCUiOT12rj8ZLyarbOzla8U2yJaxFTLbbPcrCoiVCDVk8LtuxQzxaSo13GIYY+2C8O6dTtKhp+9Z1izJ/jtFrzYpKpaI+8TbXQ1i/TPmF81bjeSLpx0U5HimtSIpVqylZBuUq+e9boSlW1Rhnji+nZI5fwi5xTEmrW2IWkqEmeB61HPljCDbZZxsDyTUYrR6w7NspiwsmXEInwgbjrxXl8s/OTkz1/HxeEVo6phuGBMKIj0rJJ27fo3QVFhsLcTsIjnyqlyuy4mEWcaQEkj6VKD3sbSrRNWae7KfCBA4obTIpMnLQFSEySUnf2qpqySaRKIhBhJketSCza2CEFSj+Y1JKxXs3BaAYAHvTqhezcgwjYAzxuKKC9mBWUpj+L3pWS7ZpcUANSEyfWk/0NA2dwknpxUafsbZtOhKZUo/rSojZrcUAkkD2PnTHQzWshwhSd/ShWhtWtGp13u1ACQSelEtIF8maCIAUZJ6EcUK12DV7QoDIVKnI9IqaW7Itja7WlSYAkcU5aVsSZEXGpOwVHpVLbbJrZAX5KVEqVyII86knXYN0iGX4EBIJJ8/WiKt+RUo27IbFGg9ClSdJmRV8HSoWSNqiOKkEEqiBtU/HfZWlSIbEm+/lIMiDVi1VFbd6OP9oeA90Tc27QAUfFPvzWzA/JNtmDkRa2jmaUhDykCSHBpUmevI/SrZJ0mtV/wY003XyVzGWFM3XeoIJVvvwT1H6108E/KPizmcmPhK4kY6tpLeu32UgyRM7VaoNv8jPd7Q9tLlN02lRVBRx6jqKz5IPG7NUJrIqbO+/g6xp3B+17DWULCUXilN+hBSZrXxt5YyMfNXjjcfR9LmrhC0JUtBQVfzf5Fdk4TS/g2kEc0AJQAUCoWgYCneiL7EpEgp9Ce9BRYUvYUId0ITUgEjrQKwqPsZlG9SAKjYmrFjakCEBpsPYUhi1MFoSlQrbFmkwQlFDujGSVaTEGhgZDbYdaQu2Nr8E2twnqWzJmI2NAI8y/i4y+7fZOdvrVkBOHrU6EgA/u1gA88yAeKozw+5FxNXHn9ufk2ePGnAxhbZftA6GXCA4jcIBCYJjodUVzMGBQk38nSy53OKiim5lucP0rQhIQ6hIIgyAZM/efrTlGTkyUJR8Co4k6hwuqaUkjSk8eYqeNNdleRp9EAXlHVwfcVqoxudszZcWVpCG0yTsIFKa+SUHbpI732L5YNw8m5fZ2WBBiRXA587tI9N9OxNbPUOC2HdMtNJEADiuDkfqz0mOOi0WVlPA54qlvRelTJa2tdMFWwG9VtOyWmSzSNYAAmKLHXyOkJQiCrptzU1TRFoeWl6pJ0aSQDG2+1OkRZMpWF6VpXpJFLSewV1Q+S0ktzI26kxUlJIEpP0OLVRhbepBjeZqP3UrB45NpozStSjBKdjtKaX3A+27M22RuXGgpR6hX96FONA1JMVTIKf8ASUmfMTUk4gnJGlCW0K8SSSeBIpa+RvyBCNZJKFAA8bUWvkKfQK7mYUhW3Sk5IHGVaG7pa1SWVD3I3ocooajKuxuVtaVKQ2hJHQmSai516JKDemzEPoSmS3qnien2pyyV0hrG37EcfbUhRWzEj+ahTb9C8Gn2Rdw2VwkOGOgNDfl/UJ46doZXSfBGraN1c1Fv2Pxa0yu4gErXK5UU7g8ChNMJrVES65AJmIPFWvSshdaIm+XM7nfbiiLrsbVoiu6XuFARyIq1zvSM7QyuUhKVBSNRNXQlsrlG9lHzZah+0dbUiQd4q7HJ3RnzxuJwnH7ZdjdKXo432rpKp6RyJtx6IDE1fFoUQiQQTtyk+dXYE4NJlGZKaZU3i7ZvhfKdUGukqmtdnJk/CWjd3gB0tL2V5EVWoW/y7JJrtM7T+GG5UO13LLiVFIF42FGeN4+9RwJxyr+SWd+WJy/R9VmSVNAOBMkQQK7Zwn2bIg7ceVArDagdWFArCgGFAJUFAXsKbBBSGHNOxJUBE0aDoQ/OpDEpUBkKTAKQBUwDiosSTYUhi1MVNiUDW/QtQExCKlYJUYnY6gNxSYK/YqVBatj+UbjypDNV6W0WjpUR4kmf0oBNpnOu1TJTWfMm4phLjK1vO2a027TSoJcA8AJ6bxt1oGk/g8Y5Qy3c/BYnowVpnEMKaU1dW11JCi3IhSSPzbb+cVlhDxm4s1Tm3FNaPNWci6vHHi4yGFJnWkCBPp9aom7k0jRB1FWVu6WQwopEd4INEVscm67I5m3JUSRwaubpFEY3ZYMv4VrebWUSVKG3vWXNlpNGzj4k2tHqfsjwc29kgrSBEAbcHr/WvN83JT2et4cEkqO5YVZjugVbkcGuTN2zr46om2WwgpOqCNqj0WOh9bLBVHkNxVcpVoFokmHAEhQHPpxUVL5J1fQ9RoI1luek+tH8DXwx60AohOgRwQBUhNEpbkrHP5RwRUJOhxTY6ab1tk6ZHWhO0NaZnaWwZQYBHpyTS0tDafZtLa1GSFR0B6UWFaFCFJ5cUlJ59aLCjYVqQAVbDoKlasjRjpJOpSwCRxFOgBCyU6UoGonzpif8ml1gqWXAdIFRe9jTVUxqpoqVs59uaTZLRgq0DhlQBjrSbTGkZaAEexppidmlaJJKh7Cp2KxpcJLZkCAeOtDdLZLsirwpA2UR6UqvYXZXr54DVA1U0/hEXZB3AK3NRkFI6VLtUmVSVsj7kFSClbmmDI2qSVPYNUuxgNQVoV9fOrU0uiqmMcQ1FR6f1qadbIsp+Y3GUtKS6TwQfDVkYbUrM2RpqmcizTh7R7x5Cgrckf2+810cWW2oo5GWDVnOrpBbWCqUNqnit0El/JjnpbITFbdSW1OpAWIBI8+n9ftW3FLdM52fG68kRVofF3JERumr5KtlEJemd3/Cqof+1rAUForDt02kxymFpMj15qmEf86L/ZbkbWGXw0fVRnVpGsCY6V2DitJdM2UCCKBWFAwoF2FAwoFegp2MKkIKj2NaA1IWxCKBiUAZVFgLRQXQlIVBQNsKbEgooLCkCdi07ChKQwoFYFKVcjrsRQNUiNv27m6vGbFpQDYBddXG4A2A+u/yoGh83ZNsIAaTsDJHmfP3oEeZ+2TIlxlPNWK57wfvPgL+2cXfMhMAOFIkj1Ph9NzVc9Ly+CcF6+T59Z2m4v7kqXqJWZUOu8k/auc5qUvJezqRg4wplLKie8KvMBIq2qVoqvbTHbVgVBB0ka1EmKg50mWLGXPLWHw82rTG8j5Vhz5Hs6XHh0em+ze3cNu1MDb/ACK87yHc22en4sUopHW8PKENBM/Osrds2J0SbRC1AEx1Bqlu3RdF2OW4DpEgdJmk07v0FkqwoOJCdOkjrUGrJp0SbLYCUp61KvQrJBhoN6SAoE7zQlbAmGGFEBQBJPp0ocbBSJBplBRER6UqC9mamk6t1RSaS2ySlaECJVzxUWTBSDIA49qKEmzS6gBY0+L1o/YehDCVTt5VNEWgZQdZJHNJKgZrfISkgJ8RpNjSs1stKdOkAjyHlUex9DpNsEIAG59RTSC7Na2xx3f0qSSF0NLlsKJJ2A2FSfQlsYXLSQZIUSepo10CbIDEgSVSCflTRJt0V+72kd2d6a370VtshrpXdFUfOmlZL1sibr85MaT1/wA+VTSK5V0NFr0pJUQTU6KxhcOIUkymT61LorbsqeZe6ctlAtgqg881pxptmbMcgxh/S6tLu7Slcgbgjr+la446WuzmTe7KbitnEoSkFIWSADtB/wCtasU6dsyTheiu3ydDamFnwpBO38p/tW/HTaZgyKk0yvhIQ/pWdKgopHrFbG7WjCl4yO5/hbTcL7XMuptEDWu8bPpE7/Y1TC3kj/JZl/8Ajdv0fVdskoSY5Fdc4z+DOCKBVQGKdBYszRQWG3Sj2NbCkKhKBhQKwp0FhQguwqQW2HTegEqMeOtAzLeaTEwpUDdBQw2A3qQdC/KoAl7D1p0DYdd6QdB6UAqQlPQtsWkPYm9AexsxpN448ZkQj5RI/U0DH8ApKlKAA3NAHP8Atf8Ahl9n2YHnCEsJtHVKJT0Ij/PSajPp2Tx9q/k+SmaXUC4uXE8AwPrXHi7npHcyKobKlZNfEukkFIG/zNaZukY4JyZYbdoKfQ2lOwG1ZJPTbN0Y1SLxlWxafu0+E7RAA5rDnbUW0jo8aPk0ejchslFoFKBEmE1w88q0egwaWzo9q2rQgEaYrNt6ZsWyWahKQSACfWk2kSSY6ah2ZEEQRUG6dMd2SlmhQAJEUL9AtExat6lgkbdako2JsnGVtiIHlTUUheTJVtwOoTJBE7QKhNJ7sIj1laO63QNvSouPwTWmZ6mwqEwPlS8X8krpAFBROlO59ai0+kNP5BSVbQAFT8qaT6BujStkJV578VLxC7NDiQpUkVJR+RegMBRngCk1ex+jUE6yCRtzUfHyH10OUJKQFxGo+VNQE2mYuOR4djQ/gLo1pcSCVAwaEvIG2NXVJKP3xAINNx9C8vgY3D6EJIBB8j5Umq6QndELfuBxOnQN6dEuuyCuO6C1JXEgbAc0OkR76IPErfvViNgfSmmN7RGuWSO70kbxTi0noTWiBxBtbCyFCAJg9IrRH8ymaoilOIJkk1a4UUKasgcbbRcsrATuOh6mrIOtsqybOPZotlB1af4QY25rdia79nIzabKsXQr93tpdBQkk8EcVY4f93wZ0k1TKribYDqm1kaFBQmN9xt9JrfidpUY86p16K++ky24rcflV7j/atq/G0YGrdnbfwqX6bHtky08t4NtG7QhWraSZA59SKjBpZE38iy7xtH1Yb/ICDO3IrqnJNvzpt2JJexKQ31QtAu+woGJTsKoWpEUFR2OgqQMSgL+A/Sl6BsD7UxmO00kBl1oexWFKgsKKBuw96kF10FRoLChiXYUIbF48qQXYUA3QnSgE7Cd4p2CVGpshu6KdgFgKG3Uc/qKQ+x3oDhE9PWgXXRyr8QuJNWnZpjTLV4yz3jZt1alCVnkienlVWaXjBsvwJvIrPlLmlLa33mm195KyZ9P8NcnDadtHXyvziqIXD2ktuIhQAk6j6dKtyO0RxLxpkrYkBwEmVdfSqJJv+C+LTezpuSLXuwh10wV7x1jyrncnIk6Orxl7PQOSrU/CIUonnb1JrjTXnK2djD+zoNsspPdkTG1VySRuTofst7ggxtVag3skpUx8wgTCjzQsdjclZK25ShO51fapePiKx6ziDZP5pjYbVG03oNoeou0gjUuBSbTaQNX0SVjiRBDba5/mnp5UTVrQRVdj9jEnCdIKVSYJ1f0pRT6Y+nZvFysnYwOaTg310Su+xwzdQQCdieaPEb/RvNwBvqEk9KaSRFNtGSSFJKgrUTViQrY1eJBMkT5UPTqiS30I4+2ppLkwFICoo8UiKbNSbpvxBIiaSjY7+QRdhbZbH1pNXpBdPZofu2J8hG9QlGmTW0Nn74EeBcp86kkmtCunTG6rkORun1mmoEXIZXNzbnUA7ECf+lT8EuyLyV2V3FcSYd/dKAUNlJVMTHWPPaqZNJ6BttaIR7EGC4kNOp1EEaNPj+XmPY0pLQlKu2aTdouVqQsFUb7AiPl0qtq/ZNTI2/vmbVYSVjQeo3IqyNNaJydKyGxV5p9ojZW2xq/G66M83aK6tRSsCZFbElRjSpsjrprUtQREHpUWr7E38HMu0PD3bV0XiAAmIUI5/wAFbuNtePs5/KVfkjml4O8Lhb/KAFggxuP+ta060zA3atENjYDifixGoGVADber+O2mkZuQvKN/BXAJCwd07GY53/3rfJJNHOi+y1dn+LLy/mbDcYt3dCra4Q6kgcKSQd/SqW6drstqLi7PsJlnF2MewKwxq0UFM31s3cII8lpB/rXYi/JKRxZKpNEsKkiIUh1YUC2FOgsKQwoFYtNgnYlId0FTFb9hUex9BToVicnamMUHrFJgFHQm70FKwSQUhhxUyLdhUCVULT6F2BpD37Cn6IsSkSbbCgSNT7ZWAWwAtJ1JPrQMG3UvpUhSylafzImCKAOfdsmW7C/yPd2zncMh0pLrim0kJTBJV9ajNJponCbUkz5M5peUxiT7CCkTJIQIGrqK50oKMmdWOW4psiLXU2wSoeQn1quatk4J07JKwMOpWdiT5dTVc+qRdBryO3dmuCu4gGrgDwbfX/oK4/LyJPxXZ3OHBtWeh8v2AtmksrTMDaBFctrZ2IKuyabSpKiVVBRsutdD5pZgbwfKpONdgmkZLxBFmjvVuIbgxM1mnkrpjqyMfzjbd53a7g+ExIqp5dE1CgZzvZNrDSnCSeQOlQ8pP+CxJEkM6YYgLUh9OyRIWrTH15pXLskvH2M7rtVwbDZccu0L1bJRxqMbwfSrILJLpFc8kIpb2x5hfa3hV4vu3bz96r8rQEz/AMQPlVjU12iCnGTpMuNv2iYT8KXWnAVoAUrcEDzH0qTn49j8bWidssdbvHyiAlBAhYVqSZG1QjNSLHFpJkmzdNphSVyZiatSRFttNG9F1BO4IjYk1KgpM03V0nQTxPJ8qnHoa0xv8VKUg76UJE+Z86K2QeiMucXQw93a1CFAieIorWgfVjFvHilam2lkEgKmq3HxWiVp9hc4syhrvHne7JE6Ykms2SdF0FRXnc52Dbiwl1viYKtwRTxybWhTaXZH3vaTa2rPevXdu4n+XVp++4q9Kd9GeXh2mUbH+2CzfeDLN8pvkSmQQPcKE1csUpK5GWc0ntlVxPtFaYWp17GFq4hIcX4jHO1D4s9aI/4jGlSexpb9pnxpU2lAbakE6mg577gz9hTy8fwVdkYZpTdN6JmzzUgq1LWlSEknTpVtxuBM/as/22qSRf5JeybTj9jiNv3SlNbSdQWSD9Zj60p4pKmWwzKaqyNu3yiRbuhY5gHpVsF7ZCb+GRDj7ilkLTBnYVqi70jHJtujEOa91bdZiptOtCT+SKzLhLWJWDyFCNSDsRIp4ZuErI5YecWjzri9tdYXjNxZLT4ZiJ4B/wCtdhpTipI4LvHNx9Ec9bLcsnedSRwDvUsUqkkiGV3BpdkBoDbim1GQCRxEf4a3vas50V3ZJYUyoXrbQCSNqqk/ZdC1aR9a+wJ1xzsiyv3p1KRhzaQfMARXS4zbxJv4ORnVZGdCmelXlAUC/gKBNUL8qCVUJQJugoG9h7UAFABToVphRYNIN6LBCQZqQxaiwCjsAoSE3QU9BsKYMKgDFpsE7EpDFmnYqEpDCnYqEJpDNL7DT0KWCFp4WkwofOgCs9omGXOKZQxaxsLdFzdXFm60yh4jSVlJ0ySPOKGhp0fHzOFldW+YLu2vLI2z7D7iHGojQoKMpg+XHyrDkXi2dLGm0qI5L+tQbSkaU+dZ2vbZo8qVIlsMY1OpWfFPSqpypNIsxq3Z6d7JMPCMLZUR12EeW1cHk/1fs9Rw4JRVHYmVJSA4pXpxWGOns6FGZu0MELXsD61YlStibIPHM5M4c04gOpTp5E7kxxWTLNvQk03dlIuc7YjduOF5KUDYhGnVB8+ayTxttSLoZKsi7/HnnUEfENIUeqQf8mpY8T1oc8nqyCusyXFqNCbwo81lWw2866WHifc2kYMvK+1pvRX7ntCuFh1toh1tIgFaTJPmPpXRh9Oi1cjnS+oyctdEPiOdXnUtLuXlF1BICAAYH2rRDhKN+KKp/UJOk3bHeXs49wUNocFyls7trlMj0n08jVOfh221pl+Hlt1HtHXMr5xwhxNuxePu9+34gVJ0qAP/ABDYkevNcnJxZt6R2cGfGqtnWsvZ7tb2xab+NHeDwpM8xt+nnVf+HcHtGpZ4vSZasLzcp4dwt4KlYbSrmeJjz5qfgrIed7RZmcY1gJS7qUOTQ40TQ4N6XkhKjNRTbYVQXN2hnUgyak27qhJWVTGXXVuIW24EwohQngERP+edTVPVkZOtMqLea3rU6rhtK7hpSgrxRCU8H7fQVGcW7sh5JdMr2bs/3SQ4ti8Se8GlseSjzA8o3+VZFh8vRY8qS7ONY1nK7lTbt442ynhSzuv3HrvXW43GjS1s5fIzte9FIx3tRuQFoQ46WEJhIWCkLPHA6bV1sHBgvya2cjkfUJrS6RTr/ODt28XS9I2hAkNzWxceMVUUc6XKnPbf/wBGbWa3n3idbe4CQmSRxzsKi8EVtElypu1dj+2v722d7y2uHElY/I2tzeq5RjJbSLoTknafZsN/ibCyo3riSOUqWoGPIjpS8ISVUv8AQfnOLvyZPYLn3MGGLAYaW4kDfU5qHzjes2XiY57s14uZkh6Lbh3aGcacDF2nuHgRC0kEg+cj+1Y58R41faNcOX9509MuGFYqb/8AcvlKnkgSeNQ86zuHi7XRoUm7UiXSwVT4Z286aaY2nZpvbb/uTkqVMdKhB1LRKS/E87Z10qzJdKSgAtQnYda7MX/lqzg5VeVqiGTbLSO/C4S74Dtx7/50p48iT8faK5xqNoi8QsUJdVdBKSFpMR9a2+bkkkY3DdmOGqWbtJb2PKd/Sm46I79H1p7BkOtdkOV23lhS02DfA4610uL/APFH+Dlcr/5XXyX8T1rRZmoWiwoWTSChKdBYtGhbYlIkFP0L2FIYVMTv0FQGFNAIYncVISMo3qLGJR7AKkLbAxUAXywp7DSFo6HdhSASgSYU60FhQhvYHjekBjQBirzoAbXawgAuJhs7FUbA9AfKgaSPlv8AiwwC1wbtlx5uxShLdy+X0hI/mSkn6kmsnJdSRu4zbjVnHW7VpthAd/1F7qFY5T8uujdHGox32PrRxtpQUj+Ejms8rb6NOPW0j1h2RBteX7RRbAUWwd9/nXn+Tubs9NxP6EkdLSuEwVCB6VSlW2anorOascVh9ivup7w7JPl61Jpz16KcknGJyG7u0Ku1PPLeulnx6gYAPp7/ANKreNvpUVQkm7GLzWI3qUhnWSTKUiEq95jatGHDFaktkZzfp/2NlrhOLEK1YXd77z3qD9fOtKxwT3RS8kmtIfJytjF62paktyRslSjMfSDV0csIaiiqWKc+2QWLdnbywouWhbVyVNPGPpH9qvjy0nVFE+E2rIF3IF1b8BwjycTM/Or1nTM/+DkmN2cq4jauFbISmDOgnZUdKi8sXqRNYJR2iRtHMQt3j3jamQsDUkCU6ulQfg1aJp5E/wAi3ZXxG5tb4urSBsEp8RAmD19j9qz5YRaNGKc07s6jl7NL7JQy68SpBJTG5JV5fM1gni9o6GPPWmdUwTFXX7dlxSv4RqkRWZwp7N+KalbJwYk42idXrVMqiy9OyMczW+bj4Z7bVIBEET+tTVtaItJKyIxTEgppx0ShYkJVJG/oPlV8YNIpnI5bmt03CX7g3TmtepC4EciN6tgq7MmSV7RSceuXEW+ppUHUZkny3gVox4ourM2TLKJzzGgh5elTqlrX+YAk7eXp1rbjikc/JNyKtdZcuMRe8He6Cdgud/kela1mUFRhnx3kdseYf2b3d0oI79CVERB3I/tUZ8v0icOA2qbL9gHYph7KA7cBdy8YgKSAgewnf3rPPl1pGrH9OiuyzHsraWgB19Fm2OQ2CDHuKzy5Vb7NS4aSojX+zmyt3v3BuLjSdSidyf0BqX+JbIPhRSDEcCdasD8LhCiopjUpDYNVvIrVsl9twTSWyh3WDXds+l562DR1eE6Qkz7j+1avuxSpO0Y3jk5fkqZe8BvLm1DT7sL0iJJ3jisD8Z3FHQUZRSbOmYU6l9nVIKVCR7Vlmq7NUHY4vm2k2hSmSSIgDrRDu0Sm6R5tziwBm3EbJxPjK0rSrz8I/wBvpXXVrEpHCy7ytNdkA4ssJebUSAmIHkQRTxK6kiqbq0MH1BbShI8Yj6VsTd0zK1SFyvaJvsatbVaCS46EAASZJ8qtm2o6M6f5bPrt2dYI3l/KGGYYytSkM27aRP8Ayiupij4QUTkZZOUnIs44qwpQUEgp0KwoYIXikMKBJUFAKrEp0FhUgSb2HtUaBugoVhRjyakMyqLAKQC0+wEosVCxRYUgoYISkMU02JCUgrew6VMXbEPvUCQhHrQBiqh7EjVcpC7d1tRMKQQY5p9oZ80fxZ5evmO0ZeY7tGIlp9WhCrloJBUP4EwAIAgwd4PpWHmJ9o38Rpao4JeJQq5CUAgyQT6dKwQ0mmdKe6scgtJ0BChBVCTzPmaqtu2y5UkqPYnZtbt22X7RIRpUGwI9OlcHOm2z03F1FIuDjXhLmqaqSs0vZzrPGJl5CrBLi25PLcEgef61bCFvRi5MtU2c0FiuQfjVrbBjYqEe43rYoKtozRddMs2D4FaoShV2wt2dxLy/0mouVdFkYeatltYsLBDQKEIbSOeY+9Vqy+MIIHsx5YwgRd4k2lSRwVAT8qIQlJtpDnkhDtoirntGywQfhbZ26SZ/IySD7EwPvVn2J+9FT5WPq7K/fdpWF3pLVrhF0tenVASnjz5qSwSXsrfLg9JWVjEs44cy7qv7G6sweq2tvqJq2PHm+mmUvk407aZsaxjCb9AXZXCFg8GaHinDtFkcsJ9Ci6Q04ChcHnb3odvsNJ6LhlvE0laVKOoq2M+9UTtWaIUztmUQ5c2ydKoT13O/pXOyzcb9nRwwsuzGXE3AGpMSZkknesblW2a0ja9ldm1SXCxq8lH2irYZGRlG2U3NeHNtpUNB4EQTG1aoTTM+SCOWYzbOJJ3VCSTBO1XKVvozuFIo+LsquXFIcJMHp+laoa2YsiTdMrGLXuF4OwdSCtzoBuSa0QjKejNklGCK6E45jLneJfTZNJ3gCTHv0NaFCMO9mWU5zdrRna4pYYY+GrjPDiFidWhQJSR7A0OLa/GNorWWMHUp7LFg/ai5aISlvNKFqA2Fwz+bfYSIjas8+O0vJwaLocynXki42XadjoZLr2EIvrcEhTlm5KvfSd/pWf8AwsZPTp/DNkOa6trQ9tM/YHjbvcs3KmHp8TDqS2v2IO9QycfJj7NMORCeumyUTbsXSD3gTvuCDNUOLS2WJRb2RGI5cw+5UlaWpUneRP8AnlTU5RVEJ4oNmCMFaUQhtnUmRHMyKj5tMHjuNFvwWzUy2hEqIG5BpTpqwxLxdIlXm9TZ0pKY496qg30Xzi2jz52mWqWsy3DoTpKwlSVeZrrwa+0kjiZ4JZWymYg0QtwrPjWkKHTpVmB310Z8+tEAt9xp5QJSrV5+YHSukoprRy5Tam0dt/CPkhWbO1vDkOWoctrObt1SkgwE7jn1IqzFDzyJekVZZuEW17Pp202lloNNpCUpAAA6Cumcpu32ZpO0UCuhRQRSsKfY+hZpAlb2JQDCgYtOxfoKGCsSkFhUwYUkDTEPNMEqMqixiUehewpAxdqmC2BqAwoAAOtO9EWB9aQ0JQFPsKAoQxQMSKBW2IeKBmtRgyRQB5j/ABodm+I5kwC0x7C2mCi0UpbjevSpaglW4H8SjNQyY1OLiy3DN45qVnzsuUKfxEtrKvzEQRB5+1cqf4Jr2dlN5ZJrokcNtQ5f2spK0l1JAHBAO9Y5zqL+TbCNyVHtDJbBRhFupUgaABXEy3bPSYP6UT144G2SBxFRikWNs5FnWzVdv6+6QtMnwk6T7hVXYm07Zjzx89kHhli8y8lT7EFMQokE/MitVp7KFGtMlr3HWMIs3Lq7c7tLYmTO/tUVByei77ihG5HOsZz9mLG7d19l9Vhh6AYXp/eOgeXkK2Y+PFK5GDLy3K1DS+Sg4nmi7ZR3uHsyt06S84dS567ng10MOGLWjkcjluGl/qxjn1WYclW+Dv3OYGLi5xe2TdBphZUtltXAX5e3pWxcXH4p6d/7HNfNyOTpVXv5H91hGbcBwPBM4XOKWj9pjrZcZ+DvEuOJCFAKQ6gGW1QJg78VLLwYPGnJLZHF9QyPI4p212dSVknN1zlS3x+2QvFLB9vvu7UmHADtIP8AFHyrjPEsUn4vZ38PIWVK12UdzAW33FXGCvKt3pKu5PvuIqf3vxuSNn+GteUXQ4acxu2Pd3LawU+HUncKqpuElaJQWROpFryhjF22+BeNHSCCFAVRlgnG0bIS8aPVvZg9b3lkzHCo3BmuDnf5eJ2cC/GztWG2aVMD94FRuAU1km/RfFOzK7tm1IUChJHXaq4Sa6LJRo5Tnxhu31OQYHAnat2GXm6M+WKSs4vmK5debX8KgnY10cWLezm5ciS0c4xBzEw+WBbLC1AkCDNarjDRjm3LZS8Vt02r5fxZeq5V/ptlXA849fOtCaUb6RjUJTbv0RuJIxm7wK+vt2WGk6U6BySY5+dWcb/NnvpGTmzeGDUdNlOz89lbDco4BZZfsrhGMKLisTuXFwD/ACpTv79BXaxKDXiltHncjknbemSAwTJ3/YXCcYwbMN9cY88FftKxettLTEKIQW3JlQ0gH5xWicMf21ffwUQyZHka6S6Zf8tZIzk3lNvOWVrpZLjZWq1UmdRHJTO0neuXmx4HJxlVo7XHy5FFSbd/7EDc4veYygjGklN8hzSClGhTR/XV/tWRRcG62jfCf3NPsufZ3nW+dWrAsXeK32ToQsiO8T/NWXk8dL8o9M6PHztPwn2jpbLZdV4NyobVzpxb0jf27JuxwxCwSoq1eXSqJKnRZFfDJG2adbKo3AqckkginY5fTraIEiRvFUx2y2Ufk4X2s2ShiyHHGYDyNlTO4PHykH511cDvGcTlR/zejmWJuJ8PfKIPdmCORH/StfHhS18mPkTSqysqWVKSVJmfXmujFUjlSe7Z7p//AI+clvpt8czjcI0oOizZn+InxKI9tvrWjjR/JyMvLmqUUezFtqQdxWwwGIoAyoFQU7ChaQdAdqAoOaBgabEgood2JR0JVYUIYGpCYhJ2pIYtHsBaWgCBRoWwPNIPQRFOhvQRtSI7YUEqoSgTdBToLCihWHypEqsxJEcUAaLy8tcPtHb6+uG7e3ZSVuOuKhKB5k0AlfXZz1Xb32auX5sE4rcQFaQ+bZYa+vMesVF5Iw1JpGpcLkSTlGLa/guGvCcdsWrhtdvf2q/3ja0kLQdo9RwTU001ozNNOn2fK3tsyDd5B7VsxZc0NlCrpV3bFO2ll2VJSfLYmuR9QioNSfR2fp0nNOK7I7BcLS1i+HWSVB24uHwFADZKQQPuSfp61x1JzTl0kdmMVCSS22excEsm7bDmGo8IQK509s72JVFGGKlC2lJSowfSorT2SlTOe4tYXLrpStvUOhArRGUaMcoybohbi2fthq7sqgcad6sUkRlFrsoWa2bq9e7y/KzbM+JLKTOqOp8/ar8cq6MuWLkvy6KzbWl1mvFmsPu1KsLGQEhSSenJj2rdUYxTkjEsUsrfgv7F4zz2N29lk5m9y4lVyu2cDrxQZKkaYUQBW/BOLi0n2crl4J+SbTVHN7DK2UjiCr/N+AXeMWYtVoatmL1VupDpHhXqAMweh5pwy5YSUUk0UZcEJxtOmTeQMgvZnusPyzg2BuPkAF1wgqS2kkSpR4ED24rW25rbr9GWONwlaXfs9z4ZlHAMr5MYwg3Ce6tmA2EqiBA35rzvJT++2no9HxoucEknZ5k7UsMwRzHG3cJWltaZSVMp1JCR5hPNVtyUHFb2drDgyQSeRUv2iuYcw2LppN0ly5ZdMOKDBT3fl71lyNqLcdV6JpxeRWrTL3hOULW4fiy8TYSCRVD5EnGn7L1ii5XH0duyBhYwu2bQAUAQYrBNW7Oli0qOvYNdwnYEx1NZZo0JdDm7uD3aoqlOmWNHKM9LU4hYWkEEkA1v4z3Zmzr8aObtWTSrjQtAKFHkiujCe7bOdlxfjohc7i0wPCLu6w20+Iu9OlpPUnygbx/atKfm6bMM00m0jhC8Gt8QuTiWKsYsu9LwKkKt/CpBG5B6AcRvWvxk14qqosxTi4bWzrP7Ey5mLJr2X2WnLdTiCE62Sk6uhmPMVLBL7Mrk6OZy+Nk5FpI4zZvYlkLHHHrvBWF3BYdtFfFW4cbWhY0lQkRPUHoRW9KU5KWOVbs4mbC8UXHLF/6DjIuRMSzJfN4LlvDpZMG4fcSe5b33VJEcE7bmt9xirmznrG26gmexssZAyvlbLrdteXaO5aZCA2kHdUbmK87zZJ5biz0HF42SeNJRPPnanlXBcRxVxzD7MseIqR4dBV5E/wC9SwZGpW+no6a4bUPF0n/w/wCSjYDg6PiO5vEd0+0qUuJVuCD5/wCc0ch09O0V4MUlayLdnYsu27xZbS+4lzSPzA9PasE99I3QVaLthuHgI7xO4G3HFZXSNUV8DhdqATKeeajeqH40zU4gBJA2iqn3otqzjnbYzNvbOtJEJchQjrvBn7V1eL/Qzjc5eM0zjWKFKkodU2AkCN99iOK34XSpM5uZOfSHOVMh4jmC4QS33LB4UsSVD0FSzcuOH3bJ8X6ZPNO56R6g7M8NxLJtvapwjErhjuiFwFkb+3FcaXPm5eStM9H/APz+MsTh4p6PZWQ82HOWWk3dwlIvLY93cAbSY2V869b9P5P+KwKb7WmfPPqXDfCzvH6e1/BNda2nPFB6UAZUC12FNAw60g9dCwPOgOvQm3SgNhTsKEo7DoKQV8hTQN0IeRUhmVABQLthUHsaSQgp0JuhaQMBtzT0F0th7UhrYlOhWFIlYRQRsKBmJBJiBvUxJX7PNP4vs/YngdvheW7cqTZPIVd3QTy4UqhIPoIJiuX9Q5b40Uo9s9R/079MjzHLLLdaRw7J+YcPxu1ReMEOsrOhYPKFDoa8pnz5Zytt2evxYliTSVHRsvZqzFkq4F9ljEVJaPictHPE04PVJ9Oog+taOH9Vy4HTdr9mHn/RsHNTbVS+V/5+Tk3bhd3PaBmt7OaMuPsX7pQpzuB3g0tNQkAkyBqkwR9a6fJ52PkpJNL5TOHg+lZeFkcXtP2jlGTjdKzrYK0FPduAHUN9jvt9ax5EowZqimsis9gWKgbRojcBI/SuXNu7O9jdobXtvrBInffmoX8g430a2sGQ8iFolR3mKhLJXROGO9si8Vyoh4lpbQKV+GZqyE29Fc4LuiDuOzhm4e1LZEJAjSnoBsK0Rm7KXhT20QV1kVyze1tshsoVq1JABjrV75LS8WRXEina0yZwPMGLYWCxd2rdylJ7vSpMSPLb/NxVkMtO4uiM8HlqSTG2L5VydjbqL5zJaLdxSiVhm5UlKj1kJIFa4/UciWmjnz+jYpttqi3ZSxTCss2JtcIwO1smnTJQ0CCr1UeTVOXn5Z2rNGH6RgxVrZJXuZPjWCl1hKx/MuI9InesTm5O27OjDEsSqCr+Cm4r8OtSlm3b36JTSc36JSTl/UyLsWhdPqsWLISd9kz9ai4abZS9Ujo+B5cTY2qFpSAs9RWKck5UasWL2y34M26FIQNt4moN0jTFHR8JbU20EkKiOazyVmiOkObhY0KCCf7VQ1XRZ32c5zcx3zDiTEgmDWnjypleVWjnS7chencEcGtTdO0ZfDyVMh8Qty5cld0klI2G07VoxSWR2jFlh46Ip9pi8dCfhUKTOkbwo/b0rU5yWo9EVhdWOrbD3rQkWaBpST+7XAV/Y9ahKbHCFdoVbty9+6uLRlwAflcaTIHzHrUoZpQ6YTwxmqa0OrHE7vDwtLNqlpKzKIa0yNvIelW/fm1tlUeJiT/FJf2Ny824g4nuVapmCFCY/wAHWotq7steClSZCYrh6cWSv4phCi4Igokn26ik8tKrIvG0q7Kw/kZ5hOpuQ5qJkiZ/z+tQ++unsqeBqqJ7LeG4hbrIfQlRBiRINOU00ChKPZ0rBraGNTiTuB8qxz0aYL5M75pKXPCajFt9ljXwMFpHiEfKo2TRyftkYSjCy8sSAqTXT4ltNI5H1FNUyiZCy2xmC+T37KXUCNjwFDj9aM+aWGLSI8TFGc1KSs7hZ5UwnAWPiHW0p0DUTXOhKeVs7HhbSKff9rKGLpSMIw5xdu0vSp/bT8h5VVn8l0dHjcXy/qdHpX8NGdhit+u1Sr93f25OnyWnf+9dz/pvktzliftX/oeQ/wCr+D9pQzLtOv7M78sQsxXrTwgAQOlAtsUTTsKDbekDFoAQmgEFAJ2HFTF2JUUNhSGFPYAeakAVH2AvpUhdBB8qAX8iwfSosEhDFIYe9TE2HB4qOg9BE9KQdAYFAU2JQCVB86AMetAzzV+MjLqb/BsMxZKJLanLdRHkRqH6GuB9eVY4z+Gz2f8A0hl/zZ4vmmeHss5ixHJeYXEFSlWby4daPXyUPUVxVCOeCa7R7n7SUmmd/wADzTa31qhxp0LQsAj2rDlx+LKZQcG00bLy5aD/AHzO5gKgGNXpSd0ZJRjZxXLl8bvtPW66gsg3joKSJgya7Mk1hTk70jgyqXIf8nqbDHJtG0nc6QZmudPZ1oPWhyQFq0pAM1RN10WpOyWsmEEDaPlWZvZel+I9dwpsonTJPX1q+MlVEHH2xt8BA8KQR5mrYt9EGiDxTB3nZ7iFrVv+XYVNb7IIgDl+/Q8FLSzIPl61ak12yLpvQ4XhDxQC4+2hP/JJo8mt2TSNAwdDapKnnN+qNINFtokls2/s10+INTHVRml6JEPiuD3zqFDuyk7gefO21NNLsjJFgyjlN21tBcvNqS8+BzyBUc2VRTSFiwOc7fRdkWiG2UtjgCuc2rNvhS0P8MUlDg2AAqUk2hrR0LCXGnbYa1nWAANqp6tE0ndowuwpIXpAA45qmSbdLou+LKPmQNKQoJ5STIqzF+LIyVooa2U9+oKEgGtr2rZlrdGw4Sh/SSgKI3oxz+2/0Qy4vNCry0wrxNsgGJ45VFb45U1+RicJwemNnsAASO5TpUdiCNvQb+gFJq9olGb6ZHmxWEabllKwP5hJH9qqbLKNTls0ghsuOICjHhV/eoufj2WLG5bSHttg7Lw2eUZAEkCRTUpPZBpR7RIs5etEgk/vFn+JW5pNNvbIUr6A4BbKBhE/3qL/ABd+wSbEawRDJnuxUHkdFigvY/8Ah+7SPDpjyPNUubemWeCIzEDqVPMcircaa7K5xS6GZ8QJmNqPYkjl3bMQ1gVw4U64RwOYnmupwdto5X1PUUyP7BbFkYc/ia3tiswY4if71n50/wA/Guif0+H4eSL9i1reZitngXFi0G2kbax/aq8Eb21R07aaSKTcYBbW7LtqlhKUKSRATUsqik1RvwOUJJ2Xn8K2OHC882uHLWpKG7rutz0UI/rT+jf5XPj8O1/qcj/qrH97hSlXVM9wuJ8XPFe8PlhjQAooEwmgYbmgXQEQKA9hQMKAugp2KgosKEqQN/AUkMWaXsAFDADSAPnQAekVMjQc1Ak9BwafQXYtISoQ0DEoFYUBYhoGtHKPxF4cm+yHcak6i28haduNiP61xvrsb4jfw0ej/wClpuPPSXtM+dWbMK0YmVhMELjjpMV5zgTfR9UnDyLtgmHm1wS2fYUW3NMz5jyNW5YKTo5XKzNS8fSHd1i9y1YreWTLG6j5iD/aqY4k2os52adJyOc4O82x2i989obCrjVKiJJVE/c/eulJJ4UmceD/AM6z1NhN4FWjYKp8Ig1zZL5OzjafRK2j+oyYJmAaz5FRbF2WbCyCka1x5Vjen2a0rJ1pnvhpQnciSfKhSfodW6NF5hygP3jmkHgDk1aptMi4XpEeu2daCktOJRtA8JMVfDIkVPFREW+Xm2nnHn8RuXluK1EbJA26CpwcdtshKDu6HzODsrOksj/mPiP34qakmDi0OUYHatJJDWo8gz/Wi0h02jU9h6goIZaTxAEVXLKkSUbNmG5TAdN1dgLVtCTwmqXld6LliUuyauMPRbN64AUkQB6VTNvtsvjSVRRGPrCUbHc1GEb2wk9C4ehSnUajvWhrRSmrOiYCx+7CfvWSaZcmOb+30pIG43kVBJEvI5ljzzjV24gghI296v8AFaaDyvTKzdICV96B4SdxVyt6ZU9bJHDnG3CNoNJxQkycRapUmSkEETNKE5RdIhkgpddmi8wpTiQuPFJ58q2Ryp/jZmeJxdkJcW5QdBGkExBHNNvxVt6JJeQxcw7WrUW5IO21VuSlssVw0ZM2hbWEFCkj2qEpV2WJWrRO2loSgJZSSfek8iS0RULeza3ZLTKZIKukdapeS12SWJdoF2bgCAANzvVMp6pEnCxtcsLaQolPtUoySQSjSK9eJXBIMTvV8ZNLZnnG/Yy/ICeAalBWRkkkcr7ZkC+wR5hsq1IQVyNikjr6jofeuvwNNnH+p7gjZ+HbCE4/ltxCCtNsy7+8VxJjgelU8qDeZtrRP6flvEkjtBs7K1YVaNshKANKdqp8kv4OmoPv2c0zKyLe/ca4JSogelRkm/4NmBSmroiOw5T6M+F9MpKb5oCP+YVZxI1zIV8oz/WmpcCfl8M+hZVqj2r3no+RPYlIXQoHSgNi78UAxJoBJBQMDQJBvzFPQNvoOaOwboKGCVCUh3QTBqSC7F4pMBZnapCYm/0oBsU+1AIAB9aA22J7CoBTYe9AxYFNqhJifOkDVhQPS6EIoC7EiKBXsovbDaC7yjeNmDKUnmT+YD+tcv6zG+HL+3/J3P8Ap6bjz4Nfv/g8G5zyso3jriGj4VHp0P8An3rxnDy1OmfYU14pt9ouOF5XUjCLe2WiFBhI+1a8k/ys4nIanJtEPimW1sNPQ2Sk/mMcjqKcW/JNGHLG4tM4dmNi4wrMNteJBOlfd79CDtJ9R+ldjE4zxtezzedyxZE10elMpYn8ThbKgoKKmxv57Vypprs7mGX4plswx0KcSOelZsqRpg7ZdMMb1DxiEjpXNkt7OjB2lRZ7HiWo01B36JL4ZIow5L6QvTqgdag5OO7Jo0u4MpYCQISekVWpSb2ycYxds1nL4SdSgB61phKSK2o2a3MNDe+mZ3rQsjRS0nZgq1EAAah5U3lclpEGkjfZYWpaypyNPTaoO3tkopD55pm0YKgBI6+dK/RYm2yBxK47xJKVc8Cq2/0WrSIzTrVp0x1k1dDXZVLZIYXanvQSmDO1WN6ILRf8Hb0sjU4CBWea2WIdXp1NeFG8b1Wh/wAnPs12SVqW8lUKrTi2Qk6KNcMqKVIUBtMVa1RG7McNuVNO90r8yTVc02xpuqLnhSu+CTyOu1VtWNEp8EHD4FbHpULa9jIq9wdt1YC24g8jr71NZZS0ukJwp2hn+yCkzAhPT0q7ypJkXG+xx+zm3giEAgSZ9ahKafY1Gl2OmLLukkoEEmBVTneycUrNjrRZSZMR5VDtln9jXDRiEAA8k0eyshMUeSHSyVDxTHrSWxybXZAXCQZ6xO1XJtooaTdkU8keLWiI3rRjbZTkVnKu2JbvwSTbupSW0KXp8xwRXX4Tvs4v1JVFU+jZ+E7H2ThOLWK3AEB4LQk8Gdv6VX9SThkT+UH0efnja+Dtl862pYKNt9tprnefktnoIxOeZzQGb0XTh/dhlc7elWeSaSRowtLSXs3fhwwdN7m/DXVolV1di4+SAVf0rb9KxvLzVJ9I4/8A1Pk+1wmk+9HuKvas+XsURNIixeBQLbE560DfwKdzQDpdBweKArQlPsOg2ooE7DpSGBoASn0hewoQxfWpAKINAqF6VHoOwo6ChCYpBQDzFAdiU6Bug+dIEEUBbsKAe9BQOqMTxQLogc7WDd9l67QpAJDKlTH8u9Zubj+7gnH5TN/03K8XKhJfKX+ujyNnXCWG7tCyPC4uIA5mvn8IPHkto+wYsvniTT2ift7BtTIUhPKQB9Kvm/8AuMFW9kRiwYYQrvWQoJG+1SxyfsqyxTVI8v8AaUk3+LXTlq2UtW7+sTwU7AfQ7V2OG6Tb9nnfqEGpV8HXOzG9TeYHZqSpMhoJUB5jY1kyxqbT+TXxp+WNNHTsG0qWkaYIINY8q1o3427L1h0BWmIkVz5wtnQg9IsFo6GWwefKq3pUW0T9grvUApWB5g1U1vokm12SaO7TspceUb0Kn6JN/BquQVQW0c8qqaTfWiC/YxVbLUuIJnmpJWQklZiqw0wUCfSpOT6RKMb7Q4aZ7skqAEDpUat1exOukQ2O3GlgpniYqzxaGmVRm++IdLJiUiTQsbe27IylbS+R8S2lGw59Kl0TarQ8w4lxSRqJBNTIVReMKbbSgDUSfKNqqcWySdD15GtOoHSPTio+IvIpeZGUkKUmTtBmrMboUlfZQbsys/1861WmVVRHBA7/ALxPIqnJ0ODp7LlgbpXbBSJkQazqak6RY9FmskkpClbkcipOLexJ+jNbaT4QB86hJV0WxV9jIM6lbpANRUr7Y2l6MWmUh0ITB1ee0c1JpehfyZOJbTynSOkGaExpfBH3Nw0Cs69RGwCjFJ9WibT6ZFv4gApWqR5QNqGR8SKxAN3LrbxWT3ZJAqKarohO2qIm6d8RbSmTM7npV+Na2UZW4LobAaivUOBIrRjVaM8nas4J204gLXEG9C1BLjaklBOwVP5vY/0FdviRuJwPqE5RnSGfYQ49gV9epaX+5fUh0KnoRt9DIrN9Rn5yi2/Rq+lYnBSfp0egG8aS+hMqlR5IE1ypRUlpndhd7IXtCslu4Ep1pEqWQiY3GogT9zVkEor+DVCls6L+GTJik4w/jjjcMYcx3DRjYuLG8eyf/ur0v0PBSeV/weI/6r5qnKOBets9K+lehZ4sUUhMJ6CgYQY4oFYUBabD1NNA2EiOKQK2LyPegYkxQAhk0BdBQAU0Ao5qQCigXsX50DAmKBV7E9zUdBe9BNSBfsCKAS9sTjneoB30H6UA9B6UDEoC7A0Ce+jRd27d1bOMOAFK0kKB6jqKTSemWQm4SUo9p3/oeTe0Sycw/E12zmyrK5KPcA7H6R9a8FzsX2ORLGu71/yfWPp3JWfjLIva/wDBJMhLFmq4BGnSDuPSqGrStklbKNmTEe8LjYWADtVkNkqrs5HnbB7ZrJGK4oG0l11xAbURwSsefoDXR400pqDOL9TX4uS9GXZDeIZw5DJXPi2JEdJ/z2p503N2Z+K14qjt2EXALqArlVYci0dKElZeMNeSkAlXFYch0MT0TlsoOBJ1Hbc+1U+N9lykS1tcpSYB+dDXokm7JZm8bCRJJ9RQkkDbY+YuUOI2hQnrtUnFkVtmwIBUZE+XWk1SoKvszFsUpJJUPSo1RLy9DW7LSGyYH6VKKrpdkSoY9dhtk95pVNJptpIH3aILAMGU8t2+WZLp0pHoK0NeEP2wxrylb6ROnDFHadvKs9suaRK4bh7baRII9POr8avspm2ui74Thq2kalJAQY3HMVqWK1szSypa9mVw20kaUrhIGxUf88qqeNJk1N1ZUMfQgJUdUgcVTKNdFydo5ziVulTytB3H3qSlQONsh3Atl4KIMVJuyDhT0TmDYo3YrSpxSUtkknUY6VjacZ3Emna8X2Xi1vmH0BbZSUq3nVWhVJWivrsdShSNYVvttVc4+y6EjBQbQPGQJ8t6rSpk7vY3fQtsEoRKDvM7inLXbBbYxvVLU0EtyoJJ5PHyqLeifRAXxS2nWs6jPUdakoWDm2RT1y+pslSoRNSca7K20huH0iVCFVFJJ2xNutDO7IcJV6bjiKvgq2UTbaIy4vO5tyoqCTJT51rhGzFObR5w7YnXri/YcIBT3i0LESRt/afrXZ4tKDPOc9uU018lkyzZM2eHWj7aUsh9oa0jifP+tef5OSU8jv0eo4UFHAkkdIy7eJeQ2gmTqE1FWl+zclWkWPMbjS7Rlgp2cUkQT/nlTwwlklsllfhjtno/sewcYRkWwKkBLl2Dcrgc6j4f/Tpr33Cx/bwRj+rPk/1XP9/lTlfuv9C7j2rUc4UCgTdAQOlAdiRQOqF680AgJHlQC0JzT7BsUydqGJaQlIE7Ep9BVhQxhQgFp+wFFMSTF+VAzEmgBd+tR2xKkEUUFhFSD0B3qAX8htFAkA33oG2JQMOlACQJ3p0Kzg3b7lburxnHGkjurtPdOnycSJSfmP8A7a879c41pciPa0//AAey/wCmefp8eX8r/wAlEt7lT+XlImSjwTXl2mm7PYJ9Uc0v2VLxEofSqFEAmeKvxSSRJ7tkpnPK1tddm+JspT4zboW2I26kn32q7DPxzKbZyuZj88bX6ZwHIWNfDXrFpr0kpBVvJECN/ntXT5Mdt/JxOJl6iehMDuy4pp5Rgjc+s1z521TOut7RfcKeKETq8PNY5wSezbik2WOzvkJA8VVOKXRpUrJG3fDq5HPlUXH5LFIl7QBYCkiOhg0eLYlKtEtbNoCA0kwOhO8U1BIfTsfNkplKwmABChvUXEL+DG7uilBKFFMcdaKSGl8kBe4j3qDKtx5dar8+yTRVsRbNyvxghJ6E1diXk7KpvVImrQM2NogyEykfKnPbNMEoqjC7xi2aRqLySfepwhF7ZVOb6ihs1nFhtcadW/SrKp2kRW1TdFss88B9r92EpGkcGpqcr0UfajeyGv8AOTjb4AIUBtKuT7feq52zVCMWtkFj+cLdNvK3AfIVUk5aBpQ2UtOZG7u6KkwhvpPnNSeKlbK/NMepeYuU/mBJ3E1BKiy0xy3ZNXVuthf5VjiJg9CKUY9kZ/KNOA5guLF5VheOguNqKSRxz/Wp+HjpKiF+Ss6BheJsXTQ/fEkiSDApPfYk6Y/LiDPdjeORvVbVdFtsQtNLa1OQSrYiIqLgqHGVPQzfbbSFJ0kBQ4B3FFJDbbZXcZtFd0Ww6VcwdpAoUlZK9WU4Kf1KS+d53E8Dy/zzq6vbM7dvRvQUSdoUftUGrF5Pob3b3KT+UiJ86sSRXOV6Kpjlx3CQ0FgSdRBPTzrbjVnPyzp0efs63Bvc1sIdcDiQpSVIIKZ50murj/DC3RwszU+Sk9l/Fsm2wDDbcJhaWU78bf8AWa85llc2/lnruKvDGk/SLLktK3bltCTxz9aTbW2aobdsud5buYpj2HYYyZUpYR8zsP1rXwIec0n7Zi+r5XiwN30mew7GzbsbG3smU6UW7SWkgdAkQP0r30VSSXo+TTflJy+RwAOtMiLxsBQJL2wiKegbYbdKQLYAGKew0AnzpBVIIp2NRT2IOKQqCAaaButAaLCtBUgoSooZlG9SExfnSsKDekwsQe1SBsPegHpBQFC1GwqhNuKFQN0Hyo9ggj0pArYRO1PsOhINIOhDuKBlZ7RcAGYcqXtkSnWlsuNT/Oncf2+dUcrEs+GUJe0bOByf8NyYZE+nv+Ho8wYfdt2b72G3S4S8JTJr57lq6fa0fUYT8oqUeivYxhj4uxcNtLcEggJE1CLcdIttey5WAssQwJyzclKygBSFJ4AHH3q+LbpvRmypO12eJ8wM3WV+0G/w23VqFveK7vT/ACHfavSJrLgUn3X+54+d4OU4x6vR6EyRizt9hVvcylRKQFb9en6VzciirR2sU7imdIwu6C0pGqIgGsko2bscyx2LoBAO/QVTJGmErZN2i3C5z+Wq3suUqJzDH0hYKlEHyqSVK2De9E0m4CynuhB96r7ZYtLZsN2G/AVkqPn0obS0FWrQ0vrnUg7xI8qjJpDi/RBqSt52UJ8M7meazt78mib+DRfWn7o6Y1J353rTjyUuqKmna9lJzJnhnDLcqvHwhDYkkmIiq4ZHJ+NbN7xxcPK6OA5w/FjhOD3blvYYTc3yEK0rcQoAA+k89a72D6dkyxUnS/k89y/q/H4jcacn+h7kH8RmVc5XSLX4p3D7twwGbrw6j6K4qzPwMmKLcla+UU8b6vx+W6ScX8M7Rh2ZO4SCp0QR51z/AA8ToOdq0R99nEKdUdRWBtHTmlKN6JwnSsoGde0bCcEYVe4/i7Vu0fyIK/EfQDk9avw8aWT+lWzDyedDDvJKkc5R+JfK9utCWrK9dQVylWgQR581tX0zI1+Rgj9bwJqrf9i+5W7acBzK3GHXDjbo37tSYM1izcN4m2ztcTkw5O4M6Vl3M3fplx3Yjz5Nc66bRrmmlo2Y02fiE4nbg6h+Yjyiptpoohd0WjLeJBSUKK4BAO81GDtU+yU7TtF7srkOwrWk+HYpSZFNxvsipUb+/EGFBWrz6VW00WRY0dCVJLjfJ2UPSqZKyxP5ILEFpZUpSuT5DpSSJXZU7oIcK19ZMeUTV10qKbVuhm2FQoyTPU0N10VJtvZruGQtpSkTERtU0+rISTVs51m66ctVF4fliCZnfmB9K6eFJrZyc8qdo4+WU4jnW1QncJXqcEnqN/8APMGtWabx8dnOxR+5yl8I6NeYbeXDtvh9i2tx0MIBgExtXCjFP8pdHqIOopMvuUMsXWCW3xN+jSSJE8zTkvIthO2Wvs3sVYz2i4a4lOpDdyk7g/lRKj+ldb6Vi8uQv0cX/qHNXGl+9HrE9BXsT5ywFBHQtAN0E70DCIoE2HNPsFpAPakDoCY2oGIKAuhTsIoEtsTmnQN0Eb0gsSpINmQ96GMDHE0kADyo7FYEgbVIFvbDbyqNA2LtSDvsTf12oGEdZqYmw9Kj2F+2AEUVQNhHWkCSYHegKEoG9mt1pDqClSQSRAkUDTro8ndsmTnMOxm/TZFTSkL7+2KBEoVvEcbGR8q8Z9V4/wBnktpae1/5PpH0TlrPxI+TtpU/7FRyrm2+t0tsYsy2l4FSAgo/NB2Prz9658YqNtm57fjZe3GVXlt3yYGsbaExFRk3lSrSXRKCWOVPd9njbt4sLzCO0R28VblKXkCFp6kgJHtvXoPpzU8Ci3bR5n63jWPlOcVp1ReuxS+H7CSHHgVBxUzzsNv89ap5MayOizhTvGrOzWNyltTYIKVL3+dYZrVnThKlss9hcIcSBPi8qpaTNMH7J/D1clSiAeo6VW0aFIlmllktqQNQJkmqm3VRLqsm7Z7YJG87yelJ90Na7M1OpAVqJk8GKg36JK/QwuC4didQPRRiqZzUSxRsVtKYCUJjziqFLyaky1RvsHLYLEzJ8qs+5S0Jwo4p20dneL4gP2jhLZdYWZuLcHcf8Q/tWnDlUfy9jduLi3o8+3fZXgGOvKtkvdwuSVCIP0NdOH1PLClJHNy8LE7bW2PMM7FsAyssXLVym6dUdzIJJiI9BWv/APozyL4Oe+HgxSuMdl0wq6vrSx+Gd1KQgQgzMJ8t6zt+WyUJOOjUziTz9wpoqJ1HilJVRZGfloqmbex21zg45fvPn4gwUalbJHkPKrsP1F4Go1owcj6dDkfk3spjn4fMTsFqV8QhTJ8SRPHn0rS/q8JdLZTh+lRhLe0PsuZGucBxVK+8juzJUfvWbk81ZY6OvwsK48nR3PJ9u7cqaLa1qZEFZjb/ADauNJ7b+Tpyflo6SLND1v3UFJUI3NQc60L7dG7CGDau906CCN0mJBqcG3srmq0XTD1PFKSju1AjYQa0pNrRTaT2SillCNShsOIHH2qmaLIsbXS1LZTIBAJ3JissjRBorWLul5KmSSnoY5qUW2xTfpFbuSEJDKfClOwqxpaaKUvHswCkISAlQJ4oVN0KTpWasVeQxa94t0NgAk1OKTkVylUbOC51zK687dIt21lpl5SNKx/qDTvp8oPXzrt4ccWlbPOcnPJtpIq+VHkDMCsbuEEuqbOhsp6iIHvUeWrxqPwPgQvL5Ptnp3stw5V0k39/aKAg6ZTBA6CfauLPJ46PSONK0b87YgtF33CBpChpSBUsb8lbK060XH8PGDi7zHdYq4jawYhP/OskT9AqvUfRsSVzPK/9SZ0lHEn3tnoYiea755B/oIHnxQFUHrQLrRjz8qBiiKaFbQECKQJ2HTagEmGxoBgR5UBW+xDztQMOBUukR7YVEkJTQCzvUgD1qLFYoECpC7YkTUaG/wBC870gr5DeKmFAOKAq2AnrUdglQAUgdvoWgOgoBJCQd6fQPeg54pDqhIg09CdsoHatkZzMmGJxTDWwq9sUkhER3rf8SffqKx8ziLlY69ro6v0zn/4LJT/pff8A7PLLzjF5ihukshCGtkgjjof0H0FeNywcW4S76PdQn5pTj09ouAxVFthiQlBUSNgP71RkSgqTpI142+2eevxD4Wbuz/aZWQoOoCCORvsPvW36RlvI16OL9bx+WNS+CF7DnHB3lu5EhZgHjaZP2Fb+WrnaMPAf4+LO85eS9cEv3KUjQqEDkkkcjyG9YMmjqQubplqsWBqCWlEE7CeYqhuzW34JUWPDUqbRK9xwapaa0aY0ydsgpaUhJ36pNQkkiyLa7H7Q0gqImekVBukWpJ9G1x1YakIgH1qqTbLI0MktLdc1rBmNtqyzTvsvVVQ+trFxY4j1qmbrSLo6RJW2DbjUJPWiD+CMmvY3zD3WH20N2wcC4SVKI0ieZq1Zaf6KVGUm9nlbtkxe0t7u5ftWQENEy4AE6lQZjySNvUyK18d/dlSZlzt405PdHGLXM2LqdLrCnu4P5iozJMbfpXSahHVnJjPJkbbWjpGB4zZrZSbxyFlI1A9J3iorI7S9FijV2ZXy8OQ8q7s1DWga1QenkauUvLTE2k7RAZg7RHmU/B2TBQ8kBWtChET/AL1OHGT29ozZeRJOooh1ZxzIphtbl8VBcwFKnp9ufsapePFbVF0JzUU7JjBlX2LYq3b/ABAhX5v3eqVQTtHA9ayZZRjHSNeGblJRuv7Hc8rWjFpbhoCZTuoD/PKsjfwzpp6LUplSAlwNqUnbjkVBPxuTJUmh41b99Ck8+VTxZXe12Uzgn0S9kkpARpievrW3HK2Z5ofpVOxcgD/DUpqxRbQ3v3mVI8BkgcERNZJR9mlOiv3SkJKlRMD8v+9NdURbdkDcOJcuZUmANh6VKqRW22zX3UIJKP8AelHQSK1mS8Dlkthw6Q3JVJ6Vdhi3K0Zc80otNnIczrYS00sMT4pS4kbDVMz/AL+ldbFJtUcXO63Q57HsMw/Ec5j4lkQy2VoCiCZgQffk1m+pSkopJ9st+mR88jb9I9Ju5gw3D2k2doQFK2AT58Vx5aSt9neadFPxtw3mKoW6oHQNh61swu6j8lWRUnL4PRXYllwYHk5N24kB/EXC+r/k4SPpv8691wcSw4Uvk+cfVeT/AInkylelo6ADNazmimgBJIoEn8ABQDewJoBfIEmgd0JToVi7GpBYGoAtgNhxQFWxOadjWgooLsSmgF2pgB9TQJKhRxQHsN+lR2FL2HrzUgbb6CJ3qKDaQtDewSCiwoKOwSoKQwoFQUAkg96dBe9BtSGa3Ud6ytuSNQjagDyn2n5XOXs4XzLyAGL0/EMlIgQobj6zXlfrGF4syyLp/wDJ736Fnjl4qj7WmUlN9iTLirRDRcbEwtWwAriSg5aZ3E0laKD2qMXOJZeuG2wVOAwAk8RvPvtWzh1jyJnN+oKWXE0jmGRcausL0FpKtdwtEBAkwSJ26CQfpXXzQTbfwcPj5XHSO7YRjrmFYe27dOHvHAChIGrVx9NuvrWCUE+jpRyOG2XvC8V1pYeSpLaincHcVlcEuzdCbaTZcbJ3WJaKSYmAdjVT2ao6omLV1JUFKUQpPWOTVE2kaE9EshWpAX09Krr2WRetmK7hpKRvrImRxVcvkkm7pGpN8EBLUyVK4A4rHN09miCt2TjFyhEd6QhKUzsZrDlm0zVCNoetYmzqSyHIWsTHUJ6k1GOalQTxN7KdnHMzS3VW1oUqt0twFE7KWTz6wAfrR935CONJX7POvaRZsYoy8WXAi2ZWt1SRyskgH6b/AG9a28adS12zJylcdvSOZXZw7BsKQ33KTd3A1IRGzYI599xWxRyZJ3ejA5xhGq2VbF8du7LEWFtrUGQoFZSmSVKMDbrtFdri41PE7W//AEcvl5ftyTT17JlFyl9paLO9WpsOBLhiCTvsarcnB7VWiyCjki6IvFEMN3im2m9Lka1+UgTFacU3OFPoy5o+D/Zuuilq1DzjK196ZhKeDA2n0Cv08qz5Y1KrLcUm10WC1xuwwu0sn1ocStTijqSrdBGyfluPrXPhiyZZS2qX/B03lhx4KltnWcqZttw+Le/WhCWtXeK1SDHhJ26TvWdJxVmlZU9HYMJu2Ly27wrBCtwRvNRpy2yxOvY+tlMNq0aoIO/r61fGFqyE5tEpDTiACBJ4MVbFePRW3fZivSiUqWJ9qm5NqiK07GVyptKCFCfWqHFtllpkHiL7aUeEGVbU0mnsTaSItSEqWFEcDipXfZBfJrvnlNAqAACU7CKirYmcczvil41eC3WVFDiivY+nH+eRrr8aCcE6ONy5NZKvRTMSvVPWAeXLgQohUK/KRMEfOroRSk0Y8jfim2SXZrg1xi4usbtisLw5aGlKbJSpaCDqHTcVl50kv8r9Wb/pkHNvIv4/k67gGGt2rqXkPuXAMkKWSrY71yvGnZ2m3IlW8PcxPGGbRlOp24cS2ge5gVr4WKWbMor5M3Oyx4/Hlkl6TPWmD4ejCcJtMNRuLZpLY9YEV9BgvGKj8Hyubc5OT9seR7VIroD60B0G080BTSFpsSVidOaQ27CKASvYEU/YJUAjmpBexInrUaDoN6GCCkMKdCsShDFNSAUCRQK6CB5UBsDQOqAelRoVtC0gTsKfoL2FGhbYUPQJWFFjoKQwqWkR2wM9KiNKgoDsQmgNlA7YMhvZyy6V4Y02cSsgXGCTCljqj5xt6gVl5nFXLxOD77X8nU+lc/8AwGfyl/S9Nf8An+x5RY+IF65Z3SFpWgltSF7FsjmQeOteQzceWCTjJU0e9hnhmSlB2mJf4IziCHGAkKSY1eoneql+LseRKUaPN1taOYLnLE8MU8hCbW5KIVtqQCYH1Ca9AmsmJN90eTmnhztLpM6xcZoZsSxbPp1KQAQAmQQCf/TGmfOayRxNps3TzqNFmynmleJ3bY8XwzJBSoJkOGAqZ6CenM7Vny4vHbNWHM8tJdHVMsXaniXSs6Y0weQeTI6e1YssfHo6WGflplstXUIdhwAb7KHB3qhr5Na2SffBA2OoEc1XJrpE07IPH8wW+HNakuFTh2gRsarmhqdPxIp3Mgt+6dCw0oiEidyT6da5OebbdPo6GJUkn7JiyxqFIVevKle51bQBwD9JrmOXm2b1GMKZG4vnFarzvcMDarctKYWrWdZEypQ+QI+dTSfjTE5W9Oit5hzM2t0t2qVKK0EhEAJBIgARuTVkE2VSa/g5vmC+sWmzh74Up1RPehXRXUD24rpYMUpNOPZgz5YRTTOTZwuPinXHbd8Ibbc0uT/AASNj8hXV4UHGlNbZyuXNTtxZXbK1u8TvF4mURbNQljV18j6711JSjij9td+zkpSyy8/S6Lnl/DTZ4Wpt0l66vFB7SlGzYSop+6YNc3kT85px0lo6XHhKEHe2xjeMossTvk3PhLUFIUmTJBEf+Uk/KtmJfcxpoz5X4ZHYOXneOW7b7iRbhBbTtsZUT9dz9Koy46bpbZZjmqTbpIa3WFNPocfvrkq1uxbIHCdA3+W4+hoWVwqMV/P9+geOE7c3afX9ix2F+wwtOh+RboSIBJ1hR/6/as6i5aaqzQpxj07o6LgHaAEONqwx1aG20w4kq5VtpMHjYkfKqZYpw7LoZ1k0i32/aGhdzqOxCRKVbHnf+tXQTSsc5+vZ0TAMcViSO7QPEhIkTO1RcqdonF2qZLuLVoJTsT0pJkq+SPcW4pKpbmPWm23/AEi10RF8QpPeafOpR/YpJV2RQuW2jpdc2VO1DXtEboicaxYG1daaWQ4ElMDr5GnGFsrnPxTOV59dZUEXiQCpBG4HO/8Av7Ga6fGbVo5XKaqzmdxdONLurR5CtCZ0KmQfFPnvINbvBf1I5Up22mtHU+w27ZssEu+/aX3Tr5SHSmEK2B0g8SJ49a5/P4+Ty+7FWqO19H5ONReJtXZ0bCrtiwuLtDBlh8BSAd9Kuse+1cpQllkkjttqOzrPYvkm6vsVGbsTt1NsW4PwoUI7xZ/i9hv869d9I+nvAvuzW31/7PE/9Q/VY53/AIbE7S7f/g7odzNd48kxPWgKAmgKAA0/Qm7Fo7HSQUbCgFIFQh32oDoCKBJ0FA2EedAxNydqe2KgqQISopjF9qkAs0C6FqPQd7ChgthE1IHoKgMKA9UHPWnQroKV0FBTsKCkCVBTYIKLCrYUgoOKAuzGd6BnMu1Dscss5KXjWC9zZYxpguFMIe9Fx1/4ufOemXlcSHKVPT9M6XA+oz4ct7Xx/wCjz5jHZz2sYbcqw9jJ1+t0mEvNJ7xo+utO31iuK/pGby1TXzZ6eP1zh+Fybv4o4r2kdl+aezfMrF7mW3Z7/Egl55IcBjVMAkbSIPUitD408EFGTv8Ag5X+LxcnK5wVL9lVU6X7i6Up9tej964tSpUEpEIR7TJgelJdIMjub2S+Q82HCbhFsHDHfKAQg7AEGSegA/rVOfF520XcXM4VE7lkPM2GOsk2lzrSgSqVfxGNRI5mfPqa5meDS2jt8bLFvTOlW9wl9pK0KBSeo361gdvR1F1aHtxilvaWwDhKyNgnqTVfi7olairRzXNObkpu+4t2kvrXIaSlQAUo7THURNZ86qNt69jhNt0uyrO5qtrZ1U3ousRdUpAWhUBEbeEH12naubPHKS8kqS/3NccsYPxu2yTu8zm0t/2em5bW4lGpwrUSonoAAPLesePD9yV0ap5/txqyGxnMVvh4/ZFs88vFBBuFzDbCY/IPM+frt0rdDiT/AKn0Zpcxf0rsrD+aMUcCu5dWHAqW9pUmCQDx6mtUONFb9FEs8nps2WeArxu0Y7xzun0LUVKJMkjcT7k/QVoUvtTuK0VKLnHxY7R2eYS8w9Y3T6FF9CkLTGxO0n71J5csXcf7CWGLVSX8knh3ZTZW2GjC8OLKlsAQFrmRHn96cs2TLLzkqYsfFx4k1Fdlgw7J1jaNtKxF5hCmkgLKdtUE9OnIqE4ubdF0MMlVkZjmC5NxVT9k+lCQtQBdB3IHH9q0YFkxU4k8vCeWNSVWUzMuQLS9Q4rCbxtUjUlEyUqKvEYH2rXizqOprZzeTwZw3Ert1gd7Z27CHoR3WtIncqGpRn6fY1G05tr2Z3jlCCT9Ebl8QFJuyWUuHSgrH5oCin7x9aOTjaardEONlTtS6Y9cxZ5lLCUkIfMoc2iRqPh+01BY07d6LJ5Wml0x1b5gdu8Vt7Vd8GNOkFfXVB2nj/rUnjjHG5JNkHlbmotnZMjZzft3UXylILTjRGrVGrSQFyPMSD8/Wsco3o348jq2dltbtNwhtaFhaXBOrpuJqm/F+LNSanHyRqudbKpJgHc1ammRohrlaXAZSAmd6G36E3boruOuG00PJmEqk+1W4/y0yvLqNlVN2LnvHlkhSipOkiNxsCPsau8PFmTycuzkmNX719c3FtePd2tl1QSkceE9PeRtXUhDxScTkZZ3Nxk+it36E2r63HwpYLaVBYHHPInneOOlaIvzWjHkfg7o9yfhf7PMMT2L2lrj1izeIxdSrpxt1gABKj4N4k+GCDO07V3cME8SUl2efzZZQytxbTXxo6Th/Yx2dYdcJuWcEUrSrUltx9akA+xP2NEOJgg/KMEn/BPJ9S5WWPjPI6/kuzTTTLaWWGkttoEJQhMADyArQYm7M9o8qBCGgBR7U0Ji0gQgFAN/AtOxdhSJdaCpkX+w+VR0G2FFkhI3ooLoTbepCpsSoDCmgMoim3QuxYpXoHvQUWFBSGFABTQmFFhVIIosST7YUMaCkMJoFQUA3QUAgoFthzzQO2tCETQGzEg0DNTifOgDyj+PLLlw9lDDsetLZTgauEofUgwUJ30k7SRuREjmao5Mbha9GrizqdPpnjlo6mkhm80oUC8sESQkAQCeSowkD3rmQdNpnVnTSaNVu4qzvn7jUGFhGgiZhU8bdZAmptKSSIRk4Ny6Lhk2/wAUwfGbVq8aKGbtYXrK4OowohR4458prJyIRyRddnQ4k5wmm1o9CZQzVb3FoyEPlaS2neDpnrH2+tcPLilCWz02HLHLHRtzjmdwLaZtlEMjxuadlLMEgE/y7bxzsOtRUG1bFknWrOL5lx1y2fU+XCbtxSocI2CAojw/MGKoeN5O1oisqxvT2VrD8assOxpt/fEHEqBeRqhE/wApO+3Ej0qrLgnLG49IlhzxjktK2P7TNjOI4utzE322C+6dkJJCUjoB8oFVLgShj/DZc+WnL89WS1tiL2MY3d9wgJaee1uPLhOobk8ieTx/tWmHH+3jTk7ZCWZTnpUjanGcOw27f7hKVqcV1Ow6xWmHCc4Jksc3OTk9DtOaFXUM2yEtq5PHTirMXBjF/k7NsWma3cZfQ/3nemSZST9K1SxQSqi2DrpG60xfE2XF3AuChQEBRJMmAI/SorDClaNFKXowexa/u3C5e3qwmDGpRg8f2qSxQXoabj0hW7sFWkqhYAIkjxdTScP0H3G/Yn7RbQUraMKVqB0nc+1Uyh5dok5prY0xK8LwTqCXI/KD9SPnFEcFO0zDyMMckaoq+YlMPJSttAJbJ3jSI6bDjcfetEItabONn4ngnJEHieYHXXgH0pbUhQkrIJG3JJ3jeiPHjTo5eXPK6focFtbimmbC4CVPaQZ353mem/lWaS8e/RfCfkkkWjKmIXKXGsNQdXw7ilhUmDyDPooGPYCs+RJS8n7NOPI2vFLo9J5Aeu3cBsnLh8LUhoNrTEEERH2rLkSm7R0cEmo00WW8JLclzTzSSouvRXru8Fuvcgz0O29TivRCTSVldzHi7YYcU6SAlMkdI9/KroQd6M+Sf429nO77E30YgwDd6rdJWpKQehAkecb7Vs8bW0c5yp2no55jWHut4he3KCpZbdLgQT+ZKoIH2rdCVxS+TBki/Nv4Im1Xc4vi9tZMNal3jqG0JO+yjEfWBV8IpNKzHmm0m2fUfJ2FW+B5YwvCLRAQ1Z2jTKUxEaUgf0n516GCqKR5qbtt/JOp4pkDIGgVCzTsKFooP7iEUMPYopA9sKAoQietOgtIWpCTdhUBoKATsKBhT/kXXRifKKQWEedOgsShIZlTYCnakgChqhLYUdg6QUIGFDBCzSDsSnQXQTSCvkN+aAddBQDVhvQCVdhQMXYUCQdKAoSgdUBEUC7MFielAzk/4mMnozj2S4ta92847ZBN20hpYQpSkztJ2GxMzSmriyUH+S0fNTLKCtSta3koDaVkatzBjSfMAz/5a4M51Omeiw47i3RniQuU4npSG0JCAtO4IOozq9pH2q1U4kGmpt0Sl+9cvW1sy4HLhDHi70iUkmdY846fIVXFJ2/n/ai6UmklTde/mzq2Tcwtpwq2skjuIWpKlHc/8MemwFcrOm5tdnc4rUYL/cf5iUl1lWIPOu6ULCkaZEqAhIHpq5rOp09IvnBSVyZz/G7Zi6ul93pVcXXdhtvhSF7x02AG/l4hzUIOTbb0kRk6XjHbZFKtGMv4K69ZqBublLhDjn8IKiJBO5ncCowbz5XGa0qFJxw4rj27K41fCzu2726vEKebMkQITPPzmuvjxRapI58Mk5zRKN5qfCVN26nHw5ABSgqP2/WrVxFJ3R0sVK7TNyMs5vx067Vlds4d9ShMfKrlCMNM24+NlyJKKqyQsuzHtFa0pRiqhr2/0+f7dKrk8ftHQw/Tsy3KRNnst7UWmkrFzbPIIkpgT59ODVTeJqkb48Ga3ZqucO7QrVta38shxDhkFDxA22kSNtxT+xCX5Jko48sG4tJjQoz1euKa/wCzxaVAAU49IHrsKaxRXsThll3GkbWsrZ7fKFLfbt9QiUIKj96VQj+xf4PJNd0SH/sxz4ttp844FBfiSO5Tx8qH9utIrfByU35dGx7ImeLfWl921cSkTqSkjaD5U1CD6KXx8i03ZXb/AAHH7dvWXGFREEpVzPl8vtS+0nsx5cM3a9FGzFgWYnErfFqp7uwVw2N1enn14rThcFSs4X1H6dk8HOK2V+0zliFrchDluG1t/wCq0pJSB6gfwmp5OFCcTz0ObOEkmtnScl5gevb4XLy9DRgeDcEL2EneSDB+XrXI5XEio0ltf+DscXlSk7bpf+z1L2Q4je3GDqZxUQ8ggBZ/iECJ9Y61xMsVCVRO/gk2tlyxJYLY8Mg9RTiroufTTKfjjrDjbmvVJB1Jir4Rpoqm/wAaKBiePtXDpsC4j/vIUwnqdY6EH0rWoVTro5s8qvx+TmmL3Nzhjb3fi4QvV+6UTMJSDtHPn9a6EFGVNUc3I5q1VX0aXL5V3crvrZC0JKUktrVM7gAb9Zk1GvH8WRbcvySLD2K5QuMz9r+XmEPJdQy+m5dTMFOggkbeR/StXESnkUaff/Bh5kfCDknej6SNpCUgQNhFehPNy7NwO1AjKgAAmgTYu/FOwS1bFpCQgoGxaAqwp2FBSHdaA00rFYUUFgPKixhSFQkj51MdWIagAlNAZCmwFpi6D0oBhQGgqAPYUAwp2FegosdJdBSAKbElQUhi8UEe2FA7Ep0FhSFYvrQOvQnvQMCKAI/F7BnEsOusPf8A9O4bU2ogCQD132p+hp1tHyj7Q8IVknOuLWgCUNm6uBoQmAQhSiE+g3A26edcTk4vGdte/wDk7nFyqcO+0R+GBrH8QcYffbb/AHKCFEiDuQT6RsAPQVCcvBKjRiSySdmV7dYm21bYPh75ebZeTDoSYMg+DcbwSfv5UQjGNyl7DJOUqxwfTLjlxdq/btLafIdUCHEjkEbnjr/eubyU4t0tI6vFknFK9stWZnimwF6hamF6AEuL/KnbbYfOseKVOmrN+SNRvoqDy71LQvrR5p24d1oLiklRSFagrVqHJn5AjiiaU5NSTpUVKXhFO1bIW7wrG7wJcavW31tkJCQFBIUZM8RAJ59a0YpY4vaaszzxzyL8X0dN7O+xvD1Nt32Z1tXbyoOhLY7tIPPPJ45onzKlUNI38XhSUU5bLpiHY9hheNxgrbbXgOsdI9qmvqNvxl2djDDHFLyQWuWbvBwG+7kkcJH5o3/tVyzwkrs6mKOrSHjF5iYWp5DC0lECSngEf2qP3U3pmtQrTLHg1z+8U2+2oLIJ8iADx5bipwhH/t7DJkmqb6HK7tl/VY3DaS0glTQIkgCfDPl/erotJ12Uyco/knRnh2D2LmIXg+HaUElKQo7H8u5+wqyMV5N16K55pJKLf7NDltbWClJaKVIJ1AxIbMbfI1S0k9E1Nsa33wVutSGyUBwglJMweB7e4oaS2SWSUlZCvulpsLSde5DajuSg8iOoiaSdbRTNOVplbey0u4vyx4kodnUnygqiP12rPl5EcS/J7KXB9jm47P2UML1MJQQDunxR/wBY+9cn/Hynk10ZeU/KLSOC9omRra0dvLq/sEtPwB3qVbq/8PG31r0fF5TyRST0eF53ESm5SX/2ROQ7+1tYt1N6G1L07DkA7ED3/Wo8vG5JuLFwpRjUX0eyez63ZesUvskEbKJiNo4ry83UmmevxJeCaRMZhvRa23dIUR4oBHQ1ZiVu/Q8s6TooOYMSc7lxzWlKQJUSdoHNbIQ2jBPI6bZxTEbm4vsXddduXGYH5kc64AH2ge5ro0owWrZxZycsrtkfjmOXbrAYcKlvNaHe9SnwiDA+RAg+9RwRUW36fos5Lbior/X4I1l4i2Km7krTZp7xE7HzkefMVKTuVVtlcEoxbTtI9B/gowJ65zviWbkvB1lFuGQNIISpak9eh2rpcCNztro4/wBRnUaT7Z7iSPWa7BxWbAOlBFuheuwp2HQsn2pAlQc0Awj0oBC0Dqw3oE6XQUAkwpsEgqQU2JvUAQQKmLbAT51FWxukIakMJqNiS+RKEMyHJimwFqIuwoBuhfagYlAmExToG76CkHoWgPYb0DCNt6BexOaAboKAvQs7UAk3tgBJoG2E0AJQAoE70CboUj0oBmp1oLSUqghQg0Av0eBvx39mbmEY5ZZkwvDCmyugpanGWUgIWdKVJURudkiJ86zcmC8fI2cbI/LxPMeUcQtg84XVqQ6hs6VkTpVvCd+STtXMzYpTiq6OtgyqDtr+5drK5snLK8xTShIt0rS0lI3Ph8SpHlET6msz81JQXvs2wUWnka62v/JH5cxU4VdpfW8bZtaiQYnaZj5kfbepcjH5rSshx8ijLbpHXL39n41hibFCQtBSFpUDEkCQPrXDU3ik2/R6HWSKroqFplpt66R+0nVpSFrQlKgQmQOSrYR9eTzWnLnag5R+DJDB5ZPz+dHaMg5ay+68AvDi46vTLrqPCUgQAE9E/Kub9+be2dRYI+kdZtcu4fa2wW3atNt8gBMAc9KTytmuCpUhpe4eGQXGZ3EwNqak7J3ojVW7NxvdICSDAk8bc0LyTuyzHn8NJmt+ysmEzKNa/CAT+b0q2OWS0ao82qtjB9TWHLS4hQIBAO87R1rXHI0zVHlwnG5DcYpaIIX4dUr1R0So7mrI5ZXd7Jy5GKa/Q8tseaLy1uABS9Jkded6s+/N+yH3cLpCHEre58AZSvePENoAifvUfvyXssWTCumDVi2p3W1bJmBwNiag+S1srnnx3V6FThHeoSm4bEJJEx0k7fes+XmTrRS+RBX4j61wC20BwNBSkk7xv865mRue2zPkztmy7wYfCrASQTIJSennVdpUihu07OW9pmUVPWMqfb2BBS83qCtuhG6ffpXU4WdwnRyOdgU4fBwbAMCbOZbFKQEC2egKG+rbxEegiYPQ12887xs85ih/mKvk9a5BDbeGIbSoJLaQI9DMH7V5jI7m7PX4UlBJG/G1MrCkOEyeDVsG0k0RnTdHGc0Yiq3eW2oq0BSkOKG4SmJEDyJPvzXUgouKZyc83FteiqMsi4u37w25QhKhEmNttvqJ+YqvNlaSimV4YeUnJoqWOC5DrtgoIIukkcbp07j7bVpxNeKkvX/ky503LxvsYXTjllYNWzR7wrWUHr/k1dBKcm/SK8s/t40k9nvz8IOTWMu9lrGIOWqG7vFHlXDxCYJTP7sH2AH1NdvgwrH5P3/wed5028nj8HeUbdK2nPb3ozoBKgA9aAsXagFvsBT6F2xetGh7CkCE3HSpiSsXmo9DbvQUga+ApugVhSGBoEgptiQlSG/2IfegFXoT5VFDMuKbAWlSQgjzobF7CkSCgTsPlQNr0LNAmkJFAWL6cUBQbRQCCaApsN6AuwAoCw36UAmAAp6FYH0pDQvHSgFXYg4mgPYEelAzkn4kskXed+z+7srGyZeeZZcXrWjUUjkx5fl3O+1RnHyTXySg6kmfLW4tnsKxF6xWZeYeOwA6dd/PeuVNeLcfR2sc1KKfv0TmHDEncLctEMAIcIQFGQInxL9QJ+1ZpuEZebfRrx/cnHxS76/8kuLGxXhdrqZBdXq1SJ8QOkR9j9aisjcmvRb9pRxr5sseBY7iLdwmzuHC6GESANiSZAiPMzXM5OKPjcfZ0ePlkn4v0TmGYkHb4AOAJBKS4ElekyZKdvptWSSpeLRsg7flF0dt7O1tbm3uFrCCEqU7+YwdySep/rWKbo6OJKR0e3v0XF0GAQptAj0FQttWy9JX4obYwtTbS3EqJkQI6VLG7qyU1cWkc8x7H7izYU+B4kg6UKG3PPqa6EIxk0vRz5twTd7Of4/nh5m4uGry9UX2EJLfigd6dyB6AA/at2HjxS8kjFk5Eo6ZX2s7XGJXAS7ii0sMJKnlgmV7TpA9VeEe81Y8EY1rbFHlzyKrog28+4qbd1CVLddVtqWrcKSTMfQipywwTtko8rItRJ207Q7pJXbElToSjQnf8wgq68dPlUVhilZN8rLa2PEdpd0ysd0samkpJCTIUCNuvrVUsCaol/i5v3sumXu0G+fsRcb6XUriYk6TB9eSaxZMSjdsvhyJTptnSsLQq/tmLh578x3A26cVhm4q67NkG36JxCUFYSlAG0GTAPtWdv2y9Uts2LLbaT3jiiAPFA49qpe9od+ipZowy1xTRbr8UKIKuo2PQda0YW4PyTM2dKapo5E7gOH4XmFbrzyQtCilXg3UoiAD5cjfrFdp53LHVHEfHSy7fR0XLb7abZbyHABKkxO8hXH3rnZY/lZ1MMko0a8dxA90oTCiAEn1/wANWY16I5ZpHK8feZdbcXdSA4vVPl0P961wtSpHOypSTbIPFSbezeQCGiEqLaeg3395FRVua/3HSUWuvgoWbsVds3UFDiPidKHd/KJFdHiYnNb6OXy8qg9O2JlT43GMes0WtnJbhwlS4SDPrsK1zhGEab7MkJvJNNLo+oPZTZGx7PcvNlsNq/ZtuFJH/ID/AFP1rs8aPjjS/RweTLyyyb+S4pG1XGe6FoAWaAF6cUCsUU2CXsKQN3oI8zQDaXQUAkl2Bp2CQUbBr4CkNaCnQrCpA23oQzUex9aCY60MS2xKkMSooDOhgFFipewo7H0FHQuwpBQUDCgilYtBK6DigV2G8RQCoOKA70g3JoBqhfagdJdAIoFtrYGOtAwoE1YEE0D6VBQJCxtQJdmi5t03DDtuonS6goPzEUDZ8u/xVdneIdn2flXDzjj9tdFKWlqH5QEjqPcn/wAQrDycW7jr5OjxMra8W7Ob4HmR9qyctlhTy1pLaTMGFH+0x7muZkxryt9ezrYsrSpdjpTl3a4ahzvnFKK1QECdhsk+gJJ+lDScvJdJbGpNRp+2XbDHEW+Hu4k6Ui4SyNR1DYCSTHnJrl5k8k1FdNnWwSjji5S7oibHFrnGcTQxYhUrISktDZs7eW5j6VZ9mOODcl18lazyzTUYezt+UL67sFtWDLi33EAFzoST/MR4QOvU+9cjLCm5M7OGdpRR13Cr/wCHsE94pJV58Geu3vxO9USabr0b4Jx/Jm2/eDtsuHCqTMAU4qnSJuSq2c4zPYKWkPvElKSTpTzHPPQTE+1b8cnFUYJw8rbOA59un3cSeWEEMoVJgyFSNz9v0rscdpRTOTzNaIKxubi6sWrW3QGyXP3jh6xOmSff9KWXIoPyb/sVYVKUaSr9k/h2HMBpu6S+taUHSAkwFOcq9+K52XltyaSNmLBGvJv/AP0d3Fg25ruWZSspDbcHrwo/c1XHkzVJs0fbjLdfwMUMx+7tUHvGzKldeZSfr/WtcM17b0yiUKtJbJrKWMPWlxb3lwkratFhK9ti2VGSPmrj0FLOlKLS9kcTlFpv0eoMpth20ZdX4ASIR0PpXm3/AFM9BF3FOiaunLbWS63+WSD61Yot9g3WzE3duptaWndR0zud6FH0yLn7KBmfMDNlfIt3H3C/dEd0UJOpBSCdQjzgCPetcMWr9GPNmp17ZzzMKMSfzYQ873KFjQ4GU6isEJIKhHGrr0rZjcHhaTto5udyWRSekXLKAXbW7jbiQQtWokD0+3SsU5WzbiTqxnnTEG7e11tqSmVQTPHmftV2BtsWd1GzkmMY+zcFuxW93yZU5qSNtJ/L77/pW6GNq29M5mXOlUY7KTmPMbr7Kme8fTcBCgYkFSSZMnj0rbgxJO5VTOfyMrkqV2VLELd1dum6UXH3nFDvAeRPBn/PKt+J7cUqSOfljUVKW2d07IcqjC8Ibu7xmXTKxvvuBpERtAn61z82XzyVF6Ohx8XhitrZ9EMnMdxlXCGdOnRZMgDn+AV6fEvGCX6R5bK05t/tk4nipFOzIAUBsAPOgG6FoBhQFBQHQU2CCkMOlAlthUw2FQDoKBhQAU0JiEUNAgg+VGwE56UIYsbzQwFpCYU6HdCxSI2JT0G0FFDsWkF/oAJoCl7A+lAIBvQDdCx6UAtiQaAq3sWgHVhNAw2NArbDegOhaB3YUC7CgOgO3lQHfZwH8V/Zgxm/s9xfEmbZpy7aaacbK0FR1NqGw/lJTImoTj5RaLYSqSPmW6BYXDlu4nuTrIbcO26VfY7VzXDy/lHVjk8dLp+yWuMaXd3rdqpRRbsaChQEqUlO23nJk1THDUW+2y6We2knpDjELt9xKWrRL/eXCiU7air/AMI9QearhjT3Ktf7F0sjpUu/9y3ZEYvW1/EobW0pKJ1IQCSSeSSNhXO5rj1Z0eF5/FfCO15Uv7CybYtnFLcfcBV4RspR5MCZO/JrhZZSk79HdxeMKXs6bhFoX5deCVuKAIjcI6/XeqlLejalemTbrAKNLaYjoOlWJ7skq6KLnO0uPgXm+8UolJEIG4HvWrHJLaM+V0nGrOD5hwB0kv3aVBpo76/4iepPtP61vhnr8V7ORPj+b8pPoq+KtOtttIQEtWqyFISB5jmY9PvQmp3u2Dg9W9GvB7u7vcUYCXFN2LC/3YnYydyfXmqckIqDvtjjKU5qtJEpdYoywn4oOlDJUUpgev8AuKy48cm/Fq2a3OKjaehzZXk3CHLVkJQsjSondUcn/atH22lTZWsl7ovGXMHtcSvrJlSfE2+e/ZKdKdKpII9ApQ+pFVzm1F/7FsIpyWv5PROEsMWtjaNNqCi0ocbjjiuWk/Js6kHcaY2xS6vbhb1rbpSnQQoEiQUnmfoftVypUyrJJuTSZpsGm7KO8Qp1xCDGrkD0PB61CfyhQXorGZE2Sr8P2pDFwhPeeoiT4TBB2nb1rRim3GmUZ4K9HPs0MCwQ9eovCzqbCkraSJ9FDyMHePWr8dy/FfsyZWoJtkjhmYH7Z5Nu4ASlZS4o7HcESfmN/eqWqbbRbGXSTKH2lZxeZdaCW3FIWoDUB4QrgAj610eHhjO3Zg53JlBJpFLsbc22FDFSe7cGpSkzq3I2AHpJ+Z9KvyTU5+CZkxQcYucl2RuP42VWqptG7YpWCNQlUA7b+9XcbAnO02ynk5pKFOkR3Z/gCc6ZiQLh1w29vC9CUyAZ4J8q6HIn/h8eltnN4+P/ABeX8npHpa0ZYsm2bdsgBIAgCI+9cnC7mrO9lioY2l8Ht7LyNGBYa3/LaNCPLwCvXw/pX8HhJu2/5ZJgHmpERZ86BN0HFAPbDrQJuxT7UDCgXbCgdBFAJIKAqgp6FYUh+thT6F2wosdUg6RUgoKAsQ+lALSE4O9L2MypMAo6I9sKENik0g6DigO+wG/SmgboCPKkCbCgVBQOvkOBQJKxYnk0Duug607CgpBS+QI9KA6D1ptUCFpBW9hQMKAWxdo3oI0EelBKqGOLWQv8OuLM7pfbKFCYlJG9HY0fKXth7MlYZj2IPYY24LVF46hSFHdJCojjmZFcqWRQyODdM7UcTyY1OK0cst2mQ+lK7lxoNqEhYOw9t+N/LirHtWkUJKL2ywWbuIuNfD4ISo3IKC8hPi0k8ccnyHzrJlhBtSn6NeKcmvGHstOEl7DtDF5iUALh0IUCs+hPSuZnxxyNuKOrhm8SSbOwZI7p9hq7DKmUXCgknUQtYHX1E9K4fIThJxuzucZ3FSqjrOEvt2zaEruwyknxNoAUoqPA23k7bTWW0to3pNLbLjhLKlyHGQlChKfM79R0qyMrJU+zdfZdtr5tSVtyCDvFT8qV2Qkreym4t2QYTiTZbdeUGtRWURsSYmfkBUoZ5J67IPDF3ZScb7H8LccUW0ABxSW0FR20AbwOm0b+lXQ5EoOyjJgi40tFQzN2NOss99hZc7ts6oTspKRyqD571pw8hO3JFMuMoxqLohmuyhd3YpDytKUeBbW++qYWCP8ANqg+S4SbrZNYIKKp2XfAewu3vW7a3uQ5bOMp2PUbAg+v+9UPmz8tosXCgu2dDwbsrbwR0Hv3HCmAXDvx9z51TPO53ZfHCo9FnsbJnDmVtWrClgcQrbVMz96oSbdrouUrdUNO4ed1pUO7KpSCDMj+nMfKrdJdlTvy2Mru6eaKWG1rcSJGmNz57motoG/gquLYZeWt8jEUYipDVvBCFIBKudjGxG8VbCfkmqM+Rbtspmb3rd5Tqi0GVNSVNKTCVDzT6b8e3NWY5Si1Rlml/wBxzxGOXFndXbjLffvPIQkyvZO+yh5yD+lb4wjOKUujG5uLbXZWMRzBcpQ6jEVBxSVoW22kSVkmdvbf6Vqx4FacderM2XO0mpbfpfJX7HOTr9w+BCEoVGj0iR95+lXT4Sil7M8OY3Jrqit4/ij+I4gtpo96IElB5nkD510+PiUIps5fKzyySajtHdOxjLFzlzBFOX7CkXF1++JMSkchM/Q1yefyPu5aj0js/TONLFj8pds6A2tpd62t11R7xaUCPKao43/yI1ctpYm38HvKwbCLJhKT+VtI+1eyWkjwknY5FMhYelAMDzFA7oUUCboKBhQJJBQHb0FFWF0FOgsJqQJ07CooGwpAgp6B6CkMQ0+xdCHyp+hiUkBnQwCkKwigYo54oEwO5oDoAdqA2L+lAN0HpQH7YRQFBFAUEdIp0FhtSE3YsHzp2FJiUWNr4FNFgkkg2FISCnY0r2wpA3vQUA3QsCJoC7EUAAZ8qATs8L9q+GJtO0fMuHXDIUw9em40qHhhQ1Db3P2rzv1VShluLrpnqfpVTwKMl+jztnrs8CLb47AGu6cSJUEKjUeu3kKnxeSnqbFy+JS8sSqjndpi1/ZYmlFy1cNfCL31n+HgmI85rZlxRnF+O7OfizThLeqLHhmK2YdVfd6svhayCUjwdQT5qP2/TFlwya8V1/8ArNuLLFSuXZcMA7QMRU+wHQWLUOEAJXJVufQEjiem1czPwUk2nbOng5rbVqkeiMgXoxB9m9QhDqRuh4piIjUUD+I788b81wZw+3cWeixT+4k4nXLO8tmmt1lJ/mO5/wB6pSaNU2l2w/bLDunW4A2o+FI5VtO58varVpbKlUmmhpc47a3KygXCNKSURPCvlTUZLY5SinQwxy5swyoPsoIQndC1EApniehinFu6YSVRtFXxy+csMNWizb+JcuBpQ0TMBX5SSY4kVbFW9srbuNpG/CsNwdPc4jbBpIDhW6ST1klB34nfjoKrnKTdN2WQSUdouGGXdhcAIZYb0tt/unEOTO+8efWq79Dr3ZPC7tnj3T7mtCkpIXpIj0ocbYrcejReKbDKtJG4japLWgckmU7E1hKw6tSkgKgwSNverGvJUipyqV+hnd4rY3LZNwgFaEzJB9jVKdWmWVaTRWDdWt0Vt6wlbi1tFKoIdTzEHnY7UNONNMg5XcWjlXaPfW6HWl2lw4wmzSG3IE6pE6fnH6TXR4alNbV2czluMPdUc1dxtu/vUP2rx0voSoqUkI0qCjqkec11lj+0vGS6OQ8rzu0VXM/eWGLuW6nVKddTKN50p0jj1/N9a2cepwTroyclPHkq9srdipQYubt1fhWpEBI3PP6T962NW0kYYqrbZfOzLKNhjlym7fK3BbrBXsYG8mduSAYrPyc8sacV7Rq4nHjlkn8M9CsrQ1aIagAJAEDbc+nSuBVbZ6VU0LgihcZgw60SytxDl02ClKZP5gNtt9q28JJ5U/2YefKsEv4PfSAEtpAmAByIr1x4duzZtQITmgVVsWKAaD3oHSXQe1ABQLoKmFhUAoWgHtiRTsKCiwasKQwoE3QU0DE2609CsCJpkuuxCCKXsSdiikxi/OixVYUgddBQFi9amLsD7VAexflFOgug25o0LbD3pD6CaAtsKdBa9iikGmFAwp2KrCkDXwFA/wCAjrQJ/CFJ8qASoOOaBvYfWgVgYE0BTZ4+/Edh6MP7ULl9CVD460Zd6QSAUkj7VxPq8badej0n0WVxcf2cpxDD2VW4dUChSDykef8Ahrk4pPo7c4atnn/tByzeN5lfVhqwQpsQmQkpneI9jXc42eLglJnnOXgayOUEUK3urizuC2q6cQQYAPhM+UTV84p7MsJU6bOh4Hc377dspTKCgqCE7fmA5j7VzM+OMU2dXBllKj0Hk7MX7Lsm0oUTcrSOSFFAHkPKAK8pnxtzpHq+PmUYW2XCzzB3r3cOrSJEvuuABQTO41TJUriAAAKX29aLFltkfmDtGThK027CXVPukPagCUgElUT7aR860YuK5q30QnyfBUh9gWLP9wi8DrLzzzveOHvPCCYKk7ddwPSaoytxtItxNT2yZzA67eAKvLmbZ9OjQEyYT4o25ncVVil5X5Ky7IunZWcexAtYY20Lq4FtdFA0hGoIKSDBkyOg25rVijcm1/uU5Z1Cn/sNXMc7u0tk2d2lHcOpWHUBWpcEgAg9YKueQKuWKLbbRQ86UUlosthiz9mi3uQ0WFNEz3fBJ346Dnz6Vny4Wm2jRjzfjst9pmELt/ikt6isFsAriCOPqZquMG1rsfnWxhiubF2zbq7p46QNaZIBHp+lXQxRS32RlOtplKxzPq7dTlu0tS1KSpSkJOpWj+YeXmKseBpeS6KFnjdXsjMVzz32Huv26E6g1q1TIJ9fLnf2rP8Abcn4st+7StFexPOLLjFhcobCbkua3UOkBAgSmD1mOnnU48em1ev9f/1FOXP+KtHOs/5mczD8ZeYdYrQ2+2nvwTAQQRp0kb7eIT611ODiWJpN73RyubleWL8V/JTsQWixTa2dmga0OtpXMEqSVAg+8Het0V9xtt6MDk8a8Uiq5gxZWMY+m5bKis93/wCAJEk/STW/i4ljh4vowcvL92V+xcuYG/i9w86Se5QJabVMEzH2gVZkmsSS9lWLG8zbfXpHoHsvwVrCsES23bBtSiHCQrZUjb7H7GuLzMvnLs9BwMKhDSLaSgeBs6/ER5b1ie+zf10TPZ1aqxDPuCWzyU6FXzI3GxAWD09q3/T0nmSXyc76pJrjyPdoGw616s8WzKgQUCoQweaAa+Bd6A6CmwQRSBimnYJLtiCkF7D1oGFAugoCwp0FhSD9hTQwgeVSEhDxuKjQXsTrUhmVJi2FK/kK1oUb0MOg2FIEL6imgbYcc0gbDmn2FUBIFCBt0FGg2w52pDWgp2RSt9i0hpMKAasBQDCgOgoDsKBrQsRQJtvSCaAoJigKFj1oDo80/i0wkoxHAccQBC0u2yz7aVD+tc76nBvFa9M7X0aVZXF+zhzYTctFl0A6uCf8968y04uz1a/JUQOO5IRdum/tm0qebSmZ/j/wTFXQz0vF9FE+Mm7Rw3tAyk6x3mLttqUUvEPNuMBKimRBBSN+nSuzxs/kvFnD5nGcH9xb38VRAMP4pYWqW7e4UUlcLHeflj06/wC1WzjGTdoywcklsvGWM8qIaZfcDKUju1OBvUpUCfnvHp5muPm4LbckrOvg51RSbo6vk27usRcTeXzvw9uTI75JIKIJ6eYHT0rk8iMccvGzs8Wcsn5NGl+//aWNruUvoTbsSNfcAj5bdE9N+R51KCWKFO7ZKbeWWnpD7DcStW33LXDbZx62Q2HA4oQEkzqIA243+VU5YOaTei3FkjBuMUbE5v8Ai2FPocV4LhLjaFEmOQfXgx8qlHB9t79obzqfT6JIY05imH91CU+Mq8S99B2/WopKM9ljm3GiFbzAGQ+7ctlkOkJAMEEJ6eu/lWxY72mZXke7RZLW5W43bWuJuLb/AHRBjlSSBufWq2k7skr0x1fZiNkwm2RcpTochABmEgQU+sc1XDHUi6U146OfZjzZiV9btvNaoSsgJKhKk/lUB6cbexrWscU/yMMssmtDO8+Mcv7FRD6FpW0W176ylQkIVVUZpRaCac2n10b765aucSucNsw6HHO7V3WnkkQeOhMfOqIdeT6L8j/7V2Qz5Sp/vW0lwtL71BUoAFRMBPtsBt6+dXRyJaar/konC+t/yVq8te8YWEvLW2lxX5tkqXAnSPIbfQVphKpL0ZZ7i13X+hRsz3r1tiTzrZCVoHchEzoWAJg+hArr8bH+KT3Zx+Tk/K72vRvyNla6xVXxdzbK3V3TYV/FMGT8pHzq7Pl+2lRXxcP3ZPyOu5YyXZWqXzcw8lZgBLYCEpG8COSdq5ebleVJHVw8RQbsv+D2Zt7Ms237xpJlKvU8/KZrnTk5O2dPGlFUkbV260I8S9id4H+RUU3ZJpF27D8MXddpWDd0lKg28XDq4ASkny9PrXV+lq86OV9YbXGf8ntApIia9QeOYlAhDQJKgjzoCxdqfQdoNqQbCn2FJdhQgboKGCCKQbfQpJoEhKCQUC2FAdBQDCpg3QRQFmPBoGZdYpMApUJsU7mhjSSX7Ac0lsTdC7U6Cwo0CYdKGCphz0pBYU6CwikLsWglaSoKexaDpRYqbCkProI24oBMODQLbDegdCmaBrXQnyoAWKBdigDpQM41+KbCVX3Z4m/aHiw+7bdJ9FHSR/6hVHKj54pL9G36dNx5CZ5RtS82pKwoqHBryM6TpntEq2ix2amlslLhGqNp6+lUuLsvxtVbKRnDL1rjNq/Yd2kKWYgjy3BB+VbMGSWKSfoyciKzpwo4nmfJlzhz7i2W0i3bSlUmT3EkxJ/lKtt5rrYs6nVnD5HGUJPx60U5lWKF0tJdLSUnSsIURpHr51olGLRji5KVPVHSMo5zuwi2tL/EHO7StcHdSz4YE8+nyrh8vhxk24rao7fE5Uo0pPWyz4RiBv0otVXyWrdpS1rQ2iJBiTztMJG3lWTKvDtb9f2N8JvJpPXbLTiV01YYI1Z2FxDl1KioJEkJA8I8og7f8XoayY4uc7a0jVOShGk9spoxN9zF1otXHBbWragFhO5BOkGPPURt/auhHGvC5bbMMsrc6jpId2+L2jDynXL1XxZcU88giEoEiI89yePSq54JT/pWkXwzxg/ye2OnscZv026i2Jt1lZB2BgyB6g7VLHDw76YTyqfXokLnMfxIFnZXin3xplYEQs8x6T/Wj7dflJaBZV/TexnjOJXK8PNy0soK1KNsRztt+pNSjCKe/QnlbVkLg1g/cY7ZMXpWAl0l8qmAgmTHmYH3p5ssVjbVFEMcnkSf+rJfMGK32Gth20YDzlyEMsuFRVoUmNWn1CQlPpWDDFZdSdJWbcrlj3HsZrxO6D969heIqNwhJb75PCUpBAgj06+nrRSg0mtfA05TunsYY3e2eF4Op1BW4q2YSFKSDCZO8HqeKsxRllmktJsqySjig720im3uILGCWmINOOFS3Toa08yJJ25gEfbyrrYsCc2pL4OPm5FRUka8IyQ/i1wm6ctXHC+pASjWJKiRJ3EDg71qedY9X0Z44HkXk1s67hXZsm0tmVutBKm0EgJJJ3G42IET1rBk5Ldpezp4uJSVrotmFYQi3sgzcLaSULJAbEbz1rFkmmzdjxJIl7NhtKFJZJCUwONqpbsti/SEFv3hVO3kJoumHvZPZJzCnKWON48pzuUWgJW4TASk7KJnyBNdDhZftZYyfyYefg+/glFd1a/setuzfNqM75XZxQgd8mUOwNtQMH7ivX2n0eHnBwdSWywq2oIGMmgBZnrQC0Lv6UC6CgYUAKaBVe2BjyoDYhp9h0FFBYsetId2ABNPYrSYlCB12FFhQUWFBUgbb9iRxSQxetMVBUWCF3IpB0A8qmCsD7VALF+dSoLACmDfoWo2CXyFHYUFILCgLCgH/Ip2NAJMJoChOdqApIWgXbDk0DaEoDQoBmgTSAzQOg3oHdFP7XsKTjHZ1jlloCj8KpxMid0+IfpUZq4uPyi7jzcMsZftHiRhvQvTuEqP0rx2RJTej3cG2k/0SDRCNduVEnkD/h86g6e0NyadIW+wUkNvMjxD+Ib7eVRWZXRN4nXlEgsVy1b3zDiFtFSnEEflBSoGNlbb+xqcMvhVMi8Sldrs4FnLs+xfAcReu8LsSyj+FCVhYKQN1Acgb8RXbwcmGSKi2m6PP8ziyx5XKMaWiqM3dzaFaXAlKzughsgJPUgetXygpVL17MkJuFr36/8AJcMsZiet7W7edWXtDSAUayArxenO5rm8njLJNLo6fFzuEW3smcFzPYC4trjGEutobQUHQJMKVud+CBP6VmyYGk4Q2zRDP5VKeqJXFc1s4ThTr9mhhDN8tCg1pC1kJOoqnnbUkbQN6zY+NlnNKbtL/Q0S5GNRcoqmym219cXt4p2+7wpWQ6sEQQORz03NdTx+3HXZz3P7s3ekWy7uGLeyVeNFLiHnEmWgYZTH5fQ7D5VjjCU5V1X+5t+4ox1sbKxC0sUvv4fcoLrxcI1yNKYIn7/b1qUYTm/GS0iE5xStPZinN9mm2t3kkus4afyHYuLUSfpJV/5RRPBNyaevLr9EYciKit3X+5pts0XKb9y+LpQ/cqKO7AktNjz8jB/Wq58WLioel7+SyOduXk9P4GjWO3hxpsYiC43atqCUk+FCCCSoDnp9faiWGMMfjDVgskpZLlujI485fWVw2wQwwgFQUOVFRG3uSAPaq3g8ZJy2y3/ENxaTpIbuYi5jiE4KmUB1rUoA7CCJk9dwa04sCw/5jMmXO8i8E9sTDsOccW0otqcLWlFvqTpBCyOPPY/atnlrWrM/gl3ujrOTcFetjHwy1JSJ71TiQJPQR5Vz8uRS9nSw4mqbRdfGGBboVqWABOvZP9+tZmlts2N6pDuxYtXQkBpRPRREA1TLRZBX2SC7VCkLLYACRvVfkl/UTa+DU5ahKe8HJHHpUobdkG/khczraOXsSaedSyy5ZvIUtXG6D/etmFN5I/yZsz/Btukenfwg2d1bdi+H4hfKK3LpIcnjUI/N869bxLeNeR4zn+Ly3H4N2LfiKy5gmNXuBYrgOLodsXS0t5ptCml+oOoH7VreNpXaMKTb0WDJ/bBkTOt4MMwnGEt36hqTaXKS06sRJ0BWy/8Awk1FprsGq7LtMGKQhRvtQJujLmn2HQCkDVi+lAMIigP4YR50BdBHWgGtaE5p+w6CkC2FNA6CkCt7YU+g7CpCQUEgqLsApAKPegXsPY0A1YtOwa/sEb80UF10FSDYVGwoWjsNpB7UgQcinYJVsBSCldsCTQNsOlAkxRQDYUAl8sBQDsX3oCvgSD86AoXegb0BMCgFsYYtbpvMMurVYBDrSkb+ooGm00zwvdWara9fZXpBQtSTttsSP6V5HlxrI1+z3vGd4oy/SMmW+FQAOD/asjbSNVIlEBK0+E6BG++1UO7LVoZ3LSgsoH5QfFA5FTjsjLboqWZcKbeDjoSskJCZG/Ow2PrFasVUkjJnVWzlGeuzq4tULvsPsUvSnXKQEuEdTEf3rpcfkxbps5HJ4rScoq0c6w142twq30qgykhXWa1ZYp/kYcUnF+I6uXr55CbdlZWyqTqE6AIgDb0G/qar8VflWy/yfSehs+7cILALwcVpTuJ3JEAenSmkmugbap2OGcQt2bllpDq/33iuFDkjoPt9xTji/FtkHkqSS99g7mG+bvLq8ttKUrmUciPKPLpQsEXFReweeSbktGDOIMJh59nWpxPHeQSJMgiPMVKWNrroisl/1GNnetIccT3aUg6VTPqdveJqE4UkWY5Jy6ETiLneOLt3Q0GpWpf8RIM/1iq5Y00lLZcsjUqWvkwZvLp1LlwtxxSndKVq1fwb8fUUvCOkl0S+5JSb7sm8Bwq/vbmzaGzKw4tSdO+pIKkpPlMJAqqUYRu30SUsk5JRWmW+wy0VWyChpTS48awNSyngAefE1nnnqVXaNMMD25KmXrD8r4S1Z24W2XlMIIBCdifUDn2npWdZ5OTfyalxoOKTfRZMMDvcNhl8BtQiIAjbgJ+tVyVlsX6Je1tlLKjEpGyvTrFUzdaRfFKWiZs7V0LShLcjbp+URVTbaLKp0iUFmhtvS4gSJI2oSb7JNURV6UICgHOJG1WKSjsqlbKLmPCr/OuIYV2e4c0p17Hbxu2XpBOhqdTij6BCVV0eBCWXInHs5f1PLHDhaa7Pobl/LdplHKWG5es2ENN2rCWglAhKQBwK9fGKglFejxs5+bbZ48/EVYPYLni8cWClm8IeQqNiVCPrKT9qsbVJkG6OUYPiLtviTFyzcL723eQ6w4FEKaWlUpUCOs1C7VEGrPojgd/+1sFscU//ALdu29/5kg/1qIx9QAoNACzQKhaAew3O9AUkBoBL2EkUDAdaBMDzQCCD0NTD2JFQDsBQFt6Cn2HQdZp9AnYRFJjF2pCRf8h5CsMaw/8AbGMFa2nFKSy0hWkEAwVEjfmRA8qBlsHZvk4f/KlH/wCoc/8A2oAU9nGTj/8AKlD/AOoc/wD2oAqme8hYfg2GnGcHK0NtKSHmlq1CCYBBO/JG3rQKjn+806Bstf8A2DeW7i7DGIBbmFssupT3Ud9rbK9I32IA9Z9KQbI93LLzGWGsyO3ISHng2hjRuU7wuZ80naKBvRsxbKj2FYNa4sq6S4p7R3zIRBYK06kSZ3kegoAyu8rWdildrd4/btYk2yHlWy2yEiRqCO8mNUHiPnQLrsVzLNnb4Tb4jc4o+F3NuX0NositIiRBWFQOOYpsEvY2wHAmcYZvbm4vl27dkhC1aGC6pWpUbAEUge9DleUinE7nCGsRQ5cN2wubdAbIL3h1FBBMpVHQzxQFDDGMH/Y/wrT1xquXWQ88yEx3OrdKSZ3MbkQImgK2RxFAN0g3p2CV7Yc7eVIdJdCz5UCr5CgKMVmKBplXz3nHDcm4KrEL5cuvOJtrVkfmeeXslI/U+QBpTkoRcn6LMWN5ZqEe2zyJf6rjFbpSoGtxSojg6q8fyZec2/bZ73DBwgl8Khui3Shek79OaytNbNCSY6cZShQUj8vUVBtPoldIVTRBU8hw7bFPn70k9VRLrYwdw03zLkww5uCQeRNXY5+CSZTPH5p12Vu6wtfc/CO3BuglEgqTuJnb7Haas8trxKJ1TUkc+xzs0trh34phJQ4jbuygcnmFRv8A0rZDlyUfGRzsnDincWc/xbJOJ2TKnWELQpKzK21a9QnrG31rZDPGTMc+PKCt6Kndsv2ziW+88TCgEkcHkn9a0Jxlv5KZJxaXtGFogd/qdRpRqCkhSTxNDlq12RULe+h7d4c64+n4ZQLCk6wuN0neR9ajHIl/JY8TbpdEZ8LdpcW6hKiAdgf96nKd6HDjbtbQN4fdOrDSQtSyfFpkwelVymk6ZoWKvWyUYwXFO41ONkrXHhIjYQdxVTyQXTG8Mu67J9rAL51tLa7NbilJBCUiEg8/0Hzqn7kbuLJ/bk9NF4y/YvWF2O9bSgAIQJB3UQNgPORWLPJTinezXgg4SqtIvtlhtv8AEJcbZUpagCACAEAjcmeBtzWJTtVZuajdpE21Y6rVSCC2lQg6DAiT89/0qSexyTqhza2CUFKWGoiY9B1J+VSckloSgl12WjCbBvQFFBSAITtzvzWabbNMI0qRPotmmgXiIEeVJaJPY1uYWnwpPi86i36RHybdUVfH32rS1WvUBttUoK6RJqk2zqn4Suyt7FMef7WsVCjbqaVa4WhQ2jV+8c+ZASPQHzr2P0zjLFiU2qb/AODxH1fl/wCIzOMHpf8AJ6ZzE8tK/wB1/CPrXURyWzmHaT2YZf7VMBVZ4iVM3LWo2903+dpf9RsJHX6GpprqS0Qafo8U5rypinZ3nB3LWY2Ch0Q6zcJH7u4bJMLSfsQdwfrRKCjTW0yMZuVxfaPR/Zt+KLAGMPtMBzLZKtkWzSGG7hjxJCEgAFSeRtyRNQok9dnfMEx7CMx2DeJ4LiDN3buiUraUCPY+R9KiJEhQMUe9ACgTQBl08qBUAEU0DDmjQKxOlIEr3YRNAP8AQtA6oOamIT0qLBL2JSGETtTQBwaGAoFFCbo7b2cCMm4f697/APlXSGbsMztgeI3jmHLeVaXTbhbDVwNBVB2gnz8ufSgCfoArvaEJyfiI9G//AMiaAZxCpkavstrmeEpvMQvrS2cQ5dOWa25UIT3Igg+iqgSNeJZtssUads3LBxu1VdMLbaQRDbDaSnQPUyT86fQuzLEc7IxRvFbW6w1pLN8kd0WkBLiVII7sqPWAIpDNyc8Wza38Uas7lGJ3TAZeh8fDrUE6Q4UxMgdJigVjdeaLJ3BLfC1u4uypi2UwU29wlDLkzupMbjeD6UDWuhplvHLXB2b+3uhdgXiEJDlq4EOI0qnYmgXYt9mRq5zDZYyxbutJtO5BlzU66EHdS1QJURzQFEdi18cTxW7xDxAXDy3EhRkhJMgfIQKA0Mx5mgGHWgbYe1AC0ABMUAa3FpbbU44oBKQSSeABQB5gzRmlvtJ7Z7e1t3u8wrLts47bJElLj58Klx6TA9qz8udYvFezf9PhWZS+Dnepw3V3q8S2nnUKB5kKNeUztKbie3w7h5GCnEqgneRA9DVDXv0STT0brZa1EavERUG76JKNPZvUpqSdUgjrtQlW2SbNToQlMtLhJTunpT02JaIhxlk96VKKdaSFR9quUlRQ47b9MiMRtEqHeC4ClJQJUoEGPWOfmKaZXOCZB4xhiVpKe+UlK/CpGrUBI9elNzSVoTxqtnPL/KTBvHWXrNBSTCzpSQocynqKuhyG0pJmF8e5PyWjW5kq2R+8UlJQg6gCDqT8o/Spx5EpPRJ4UuyOvMuKt21O2zJWuOepE9JqyOVPUhLCluJDnC71wq7yGwN9081N5YomotdElgmUnisLt3VqcUreR61Vl5KfYQwU3K+y/YZktBSEutlSlDxEj51jllb2jUsKaos2H5TZSoqQ1pJTpGkbD5VVLK9IujiXok0ZfYtlIIaHct/wBIk7ySKqc3K0SeKkvgsDNlbsoj4fQSPEPQcVGKLEklbNLin3HdKOARzVqXsrk7dE3huGwlCdzB1LVHJqqUnJ6LscFFb7J1hospJWTA3kDf2oTRNppjhh124YClslG5gK5A9artttELdjLE7lu3ZIXPv0HzobfSLEvY37PezTEe2DMiGNTjGC2bgN68EGHAD/AKST5kTPkK7X0v6c8slkyLSOD9X+pfai8ON7ff6PcGB4PZZfwljC8Pt0MMW7YbbQgQEpA2Ar1iSSpdHj273ZHY0mUlzmDv8A586kK9lYS4bK7cR/8Nwz86K0N0kebfxkMWYGXbsgB8quACBvphG31irO4f3KNqd/o80AqISW31pMAKM8VXTJ2rLd2e9rWZ+zzE032EXpGrZ1lZJacH/Eng+43pB1tI9ldlXb1lPtIt27Ry5aw/GNP7y0dXGs9S2T+YenNJgr9nTwRyDSGbAaBNWLQMWgSSuwp0FiRRQXoOtDBJdsWpCYlR0Pb0B5qQbDmgb0JtO1ACVFgZQTyakKjtnZzH/Y3DwOne//AJV1AZAZoxPDs2vLwjA8vLxK7blBuyktpZP/ADbE/OB70AXDLOHXmE4FaYfiDwduGUkLUFFQ3USBJ8gQPlQAx7QiBk/EZ8m//wAiaAOI0CbosD+VGrVvubvHbNnEAyHzaOApgEagkuHwhRHSnoGYqy5ZsYXbYjd4wGl3bKnm2hbLXsCRBUNhuKLCjanJV8oYO6H09xi+kBwJP7pStwFD249j5UgaMW8r2qLBu/v8ZFul151pCRbLcJKDBPh4oBKjOwyi3f2lg7+2WmX8T70WzK2lEKKFFJBUJjj70DNGA5Tu8cTeFL6GFWx0JCxPeuwohA9fCaKFYYRl7D8TsXrtzHE267Vsuvtm3Wotp1QDI56cedAWZsZasXLD9pvY4GmF3DjDSharWV6Y8UDcSDwaASFs8r2j9ja3j2Os2xvnXGrdLjK4UUqA3I/LyOfOgOyHubB+zv3MPuU6HWnC0sdAQY+lAN0TmKZPFgi9NtizVy5hy0JuW+6UgoCzAInZW56UAjS5lS4axbEcLNyP/d7Dj5c0GFhCQqB5TNAzO0yil9u0busZt7W8xBActbZaFHWk/l1KGydXSgDl/adcYFiOWcx4Cx2k2uA32BWhuscCsPeuF2luXQ3A7vYqJUnYEkA8U+gRxT8OnZTYPYq9nvFs94fa4Pi1xe4bgDrlq932KpYcSHLgNxLTYlIOoyCYI883JjFxVutmzhzcZtxV6MMK7EMYezt2j2OZMYZwWyyZiDRvbhu2dvFrF142VIbbGooUnxFRiARPWPOZeJJ5JubpR799nq8fOiseNY1bl1tLrvbKbm3ALfLuOXeEWuMWOLsMqBavbJRLLyVJCgRO4ImCDuCCKxTXjJq7/aN2KTyRUmmv0yItAtK5Ufy/5NVNKvIsWtDm5Qgr1REihWuyTo0rCij8sADcjypqpdCbYzds090oGJ3+dST3QnTI9+1ZUlC1S7pnZXJBqb6orpEbiDYcbWHbaNKZQUjkjeDUGmuhSSaoZ3ViUtFtcPIWDGoQQY4+lRTa2LwXT2QDlgu2/dF55oA+A6p+UGrVKyHhTGL7RcQptKi95EdD5VJT3SBpPo1M5YRdKDTqAonkngVB5ZLof2k6ss2D5eatFpGlJQk8pEVDz8ixQqtFhtS2yFfuDoUNvM1FrRZbbolLVbC/ElGmOhqttrRYujN1bCfGtSvDvGnz2oSrYTaS2aXL1Cl6EOKUI8SoIEf1qxK9opc7VEphNk3J1eIq335H9qjN2WQiltlnsrcJbDbYhQ6Cq0/ku6HS7cAJ1KKo4gcmoNu7GN7t1LSNa3CCDtH5aF8kNJEnkfswxrtLvWnnFLtcHQv96/EKd8w35+9dr6d9LedrJk0v+TifUvq0cCePG7fz8HrLKeU8HyphTOFYPZNWzDKYCUJjfqfevWQhGCSiqSPHznKcnKTtsl7g6UwKmQZEXyNTZB6igEVbEGglRBHHFA26PJX4wMU143g+HIck29q46RzGtQH/APzU+ooprbZ54h1RAI6x4R0/yKi9MklfbEcS6NJWORzPEU6+R9dG61xe9sHUPNOqSpJCkwSCk+YIFFe0Ju9M9JdjP4rLrC0M4Lnl1d/ZAJSm7G7zQ48X8yR9ahXwHR6wwXHcIzFYNYnguIMXls8nUhxpYUD9OvpUSRIgmgBRBoF0KYPFTDxEg1GwoIikNv4CgAoC7CmhN0YnajoEIKEMBR7Ayk9KOwqi/ZDz7YYNh/7HxhK0NtqKmnUJ1AAmSCBvzJkedFCstLHaBke3SUMX6WgpRUQm1cEqJ3OyeTSGbD2j5O//ANVR/wDp3P8A9adCuiqZ6z9h+MYccHwcLcbdUlTzq0lIgGQADvyBv6UUF30UChKwZcE50w5LruL/AAd1+0n2Ay63qQbda0p0hZkauN4HlzSGahmiyXgFthKrnFmFMW62Vpt1oDTpUSfEDuRvFOhXZsw3PDdhd4av4Vxy1trNq2uGlR4loUpSVp9QTt86XYXQWmbrFvCkWCrjFrVSX3nCq0WhIWFqkAyen9aBrZjhOdk4XY4bhqWnyxbouG7nRpCyHFEpUhXIIn0o6F26Rpw7NrWDYdaWVhh7by2rlV085cJ5XwgphWxCfOeaB9dmg45hzVxjira2eS1ijZQykxLZKwozvxsRtQF2OsGzRaYfgjeFOXOKWziH1uldmpKdQIAgz7UBdmu2xzL5w2ws8RtL91eHPOuthtSEpc1KBAUTJ6CYHnQBH3uKWuIv3OI3TDovn7oPJKVDu0o6pjknigB7mHNt9jF3cBp1Tdg66lwM6EJJjjUUiVb+ZNAr2PbnPj9ziWJuLeu1WN5bOss25WIQpSYBImNjPFAznvah+IHI3ZXhOGY1mLDb2+x2yYS3Y2ds8hCH+7ktqcKt0JBgEgGfKmlq/Qv0eEMO7byGO1O4zNb3N1iXaDYLYbct47tl5V0l9SlBRkJ2IESeKdex/o61+ETtOyrmW3wPsxzpgeKLucpqv7nBr6wdQlK7e6UhbzDyVj+dAUFgz0jqc3LUVC5Gvheby/h3XsuGbe0bBMrfiAzVmDMozLhN3mdFo5huJZfv+6dt0W6A0WFtrIbdSpCG51bgpkDevPcjkQjN5JWm/af/AOTPTcfizlijihTSu1Jad+/lFK7VM02Gf864hmjDcN/Z9vd92A0rTrWUtpSXHNICdayCowIknnk83kciPIyucdJnU43HfFwrHJ20VH4QFcIUEkmOelQUl7LGvY3WblbncuMLCEnwqJG59qG/gg226HXdFLexBHn5U49liGj1oWGxyZ5ipKSREjr1kLG8pjnbg1JNO2Q69EY/ZPvvBxlfhHh0A/1/vVUpvpoJQ8txY1cYuHlFLqFJSPyjY0nbWgSfTI25sVa9SXilXKTpmD1px0Nw/Zp+BT/poJWR1iJPnUvJJDUUloeN24CgYUiPLrVfkiSiPW1NshRbK1dFbbQKE/J0DddDhp1CikICkgjgDn3NNJ/IVbsC6FK7wiTq8KUefrSddsLfZuZU46SFrPMqB4pqNq2Ju9MfWbHeu6iODOmOnSak3SoajbLLgzaQsJS2CSZJB4Hqapb0WJu9FqtrchP7lBJI/N51T7stQl58PZt631EqO3oKaTlLxWyMmkrZb+zvsjvc1XKMazI0UYeYUzbEKCnB0KhtA9K9J9O+kXWTP/Zf+zzP1L6uleLA/wCX/wCj0ZguC2mE2rdpZ27bLbYCQlCYAFekSUVSPMylbbZKkaU8RUiGxs+QeaBEZfmEzxQBWMWI0EgwQKaG3SPAv4l8yKxXtQvrdhRcFmy3bQDsCBJH/qqxvxSRSm3bOWi9QlIQVlK4jgmoJpskk0tmZu1ATqIEbyKGxbZki4UtKgpKSlR3gc9aG70NX/IBtxCtVuqFCNgdh6e9Fa0S8l/Bdskdp+cciPpuMBxq4tgDLjYVqbX6FJ2NRa+QaXyej8i/jCtblLVrnLB4WYSq4szx6qbJ9+DSoHrs7hlXtPyNnNsKwHMVo+51ZK9Dg90nek0CdlrBB3CtqKDQpMdaQwkc06E2EiNqQAaAoTigZiaAtvsSmgA80MDIEUaAJFHoTdC0dB2FFhSQkUh2xadioXrtRYUJvxSBGX0psEq2FIbbE60CTsUmmwQnWkMWgVti0A1YlAxaAK5nnP2Xez3CF4rjt2lKyD3DAI1vKjgDy9eBTSvsV/B4I7We0K/7QcxXWPYmsjvVaWWQfC02OEj0/rUm7Drs5o+4lRSdekCSdulA/wCx2/8ABmhxXaVcvKJ7tq0UQfdaB/WsfPf+Wl+zofTE/ut/o9K9u3ZQrPmBi6wgpRjFko3Vm4eCsSdJI6ESPnXneTDztPpnp+Nl8K/RwPDn7herDMWtVWeJWh7u4YdEKQofqPIiuHThLxZ2FNZFaZIqaUZloAgcxMirk/bK2ma2BvqUkKgwZqflqkR8aZsUhqFd2gQZp3qgXyYN2wcSUIAIEwP7Ul/A63ZG3lsnQYSPDttz/k1NySQnY2Nqnu5SkoJ2AIE1Vfl2EVWyNvbVaEFK0EkD5e1Pyrsk17IlWEuOEuAlOvgAkxUXJvojTaHDWGu7AHaRAPl/eh6JJP5Hi8LAGufEPSo1WxtKjUu1bbP+nqI+lOK+Qa+DWG9Md64og/wp6T61Z2yHQoS00z3bR06jII/vTbsFro1/EfDJhlGpUxJ/X1oT7Bt+icwWxv7sBV0ru24ClGOfSoNkoxb7LhhDTDY0ICQBySqqJ5EtMsjFk4u+TaMEpC1ajAAG6j5Ac1WnLLJRgrslOcYRcm6o6V2Zdkr16tjMeY2HkOTrYtXV7IH8ygNyfQmvXfTPpKwRWTKt+v0eR+qfVZZm8WJ69v5O62eHt2zaW20gAeQrvpUefk2PA2AJpkNezFZn5UANLgSDxQBF3igpJmKEBRs7YozhOFXN64YQy2pZ36ATUkhSemfM/NGYXMazFiGL3J1uXdwt33JUT+lTaTIJuNDFKmX5KWtKj0JjeoNUtDcm+za3E904z5wRvH+RRRK2v4M0u9yspb0LTJIkfahIi5W9M3oumHNtBR8+f8mpWl0K79GxspWDDgkcAn9ai9jRsUdKgUXBJ4J/tSpjtLpji1xa9tHErS8tKhsFBRBoSG2dLyh+IztDymEMW2PvXNuiAGrv98AB0E7gfOk0CSO4ZR/GPg94WmM1YCu2kAKuLVetM+egwR9TSoW2dfyv2v8AZ5nBSW8GzNaKeVwy6vu3PbSqCflSaJXRcwUK3SoEelFBdhxQgqxJqQqEJ6VHYxJHnTSoBCCDPSj0Ao34pUBl6UUAselFAITRQAJPSigFg+VFAEeVFALBooA45FFAJvRQASetFALG29FALBqQqFio0MIoSAUIUTEGigOY9rfbjgHZzZu2Nm61e40Uwi3CpDRj8zkce3JqXjXYrvo8W527QcdzlijuJ43fu3DqzAJVASBMADoN+BTpsLroo95crUFJ0yeSd/oKKCyIvXkIQf5lDgdBSaoE7O+/gtt3Hs24vJOtuzQY9C4P9qw83/tX8nT+nvxlJt+j3IHUtobDiSYEVx82JtbR2cc1L2c/7SOyLL2ewL+1UbDFW0nubxob/wDKscKT6H5EGseTjRyxpqn8mzByHhfdr4ODZjwbMmSnfhM14c60lBIbvWkksOjz1fw+xj51hnheJ03aOpDLHMriaGMRbcQHULbdSv8AlgzUF8ok00bV9yEwtW/8gHiT9KU7SQJXoCdSCEEISAZ3hXz8qak32tAokWXmwgtKiQdlBUyKVuXSCjMLaebASiSOp4k0Nu9IF+xpcthSyCoQOB51F7JNDZaGwkAAQnapJS+BaRpSUt+IL1JG0mhq9gmkYKeDh1uL8MyIPNJqwNL98hZUkJ16RE8AVOmiHl6GL9wZlaglI6J8/epL9iabNJuUrWptS4JgQNomnLQl8MlcOtbdTgeddACePIVVKVqiaSu2WRl8PtpbtntKBy5H2AqlybXRYvglsPU0yEIaSCvgTupR9Peowxubp+xtqCbfo7j2WdkF63cNZjzfa928iFW1m5yg/wAyx0PkOlew+mfSo8ZLLPbf+x4/6p9WedvFi0vb+f8A6O421q20NDQEeldw4LbsfNtADmggLoHE0Ds1Lb34oENLhrw7CgCGvkLSlW1AHm38VWblZfyJd2rbul/EJtm994P5j9J+tWRXshJngl24STDiQQD7yZpkd+xW1JBlK1ICvFA3qNNktLbHAUoqBDxggdabToVJm9Kgk94HBvsNVFaBv4HCnAUgLSnUeY5FKiV6owUGANSSoxzBPQUNbEnW6NnfIJ0lZAHhSCeBtzTr4B72zal9KFEBZ08D19aKQXXRsceQsTvuDsTxUWgv5MG7txrwDr1Oxo6Hd+9G1GOXdsB3Tx1JmJ3Iil4haejoGTe37tBymEIwvMlypkQCy6sutiPRUx8qGv0CSfs7Zlb8ZuIpQkZpy0xcJSBqcs1ltUeelUg/UUUP0dVyv+J/sjzMUtKzCMKfP/wsRT3P/rko/wDVSafwCZ1CzvLTErVu+w65aurdwSh1lYWhQ9FDY0DNhlO52igD/9k=;" parent="1" vertex="1">
                    <mxGeometry x="-191" y="-157" width="400" height="400" as="geometry"/>
                </mxCell>
            </root>
        </mxGraphModel>
    </diagram>
</mxfile>